<svg width="945" height="171" viewBox="0 0 945 171" fill="none" xmlns="http://www.w3.org/2000/svg">
<path d="M99.885 136.5L68.97 42H91.65L118.515 125.7H107.175L135.255 42H155.505L182.505 125.7H171.57L199.11 42H220.035L189.12 136.5H165.63L141.735 63.06H147.945L123.375 136.5H99.885ZM277.089 138.12C269.619 138.12 262.689 136.905 256.299 134.475C249.999 132.045 244.509 128.625 239.829 124.215C235.239 119.805 231.639 114.63 229.029 108.69C226.509 102.75 225.249 96.27 225.249 89.25C225.249 82.23 226.509 75.75 229.029 69.81C231.639 63.87 235.284 58.695 239.964 54.285C244.644 49.875 250.134 46.455 256.434 44.025C262.734 41.595 269.574 40.38 276.954 40.38C284.424 40.38 291.264 41.595 297.474 44.025C303.774 46.455 309.219 49.875 313.809 54.285C318.489 58.695 322.134 63.87 324.744 69.81C327.354 75.66 328.659 82.14 328.659 89.25C328.659 96.27 327.354 102.795 324.744 108.825C322.134 114.765 318.489 119.94 313.809 124.35C309.219 128.67 303.774 132.045 297.474 134.475C291.264 136.905 284.469 138.12 277.089 138.12ZM276.954 119.49C281.184 119.49 285.054 118.77 288.564 117.33C292.164 115.89 295.314 113.82 298.014 111.12C300.714 108.42 302.784 105.225 304.224 101.535C305.754 97.845 306.519 93.75 306.519 89.25C306.519 84.75 305.754 80.655 304.224 76.965C302.784 73.275 300.714 70.08 298.014 67.38C295.404 64.68 292.299 62.61 288.699 61.17C285.099 59.73 281.184 59.01 276.954 59.01C272.724 59.01 268.809 59.73 265.209 61.17C261.699 62.61 258.594 64.68 255.894 67.38C253.194 70.08 251.079 73.275 249.549 76.965C248.109 80.655 247.389 84.75 247.389 89.25C247.389 93.66 248.109 97.755 249.549 101.535C251.079 105.225 253.149 108.42 255.759 111.12C258.459 113.82 261.609 115.89 265.209 117.33C268.809 118.77 272.724 119.49 276.954 119.49ZM345.096 136.5V42H386.001C394.461 42 401.751 43.395 407.871 46.185C413.991 48.885 418.716 52.8 422.046 57.93C425.376 63.06 427.041 69.18 427.041 76.29C427.041 83.31 425.376 89.385 422.046 94.515C418.716 99.555 413.991 103.425 407.871 106.125C401.751 108.825 394.461 110.175 386.001 110.175H357.246L366.966 100.59V136.5H345.096ZM405.171 136.5L381.546 102.21H404.901L428.796 136.5H405.171ZM366.966 103.02L357.246 92.76H384.786C391.536 92.76 396.576 91.32 399.906 88.44C403.236 85.47 404.901 81.42 404.901 76.29C404.901 71.07 403.236 67.02 399.906 64.14C396.576 61.26 391.536 59.82 384.786 59.82H357.246L366.966 49.425V103.02ZM463.943 114.9L462.728 89.655L507.953 42H532.253L491.483 85.875L479.333 98.835L463.943 114.9ZM444.368 136.5V42H466.103V136.5H444.368ZM509.033 136.5L475.418 95.325L489.728 79.8L534.548 136.5H509.033ZM573.372 138.12C565.812 138.12 558.567 137.13 551.637 135.15C544.707 133.08 539.127 130.425 534.897 127.185L542.322 110.715C546.372 113.595 551.142 115.98 556.632 117.87C562.212 119.67 567.837 120.57 573.507 120.57C577.827 120.57 581.292 120.165 583.902 119.355C586.602 118.455 588.582 117.24 589.842 115.71C591.102 114.18 591.732 112.425 591.732 110.445C591.732 107.925 590.742 105.945 588.762 104.505C586.782 102.975 584.172 101.76 580.932 100.86C577.692 99.87 574.092 98.97 570.132 98.16C566.262 97.26 562.347 96.18 558.387 94.92C554.517 93.66 550.962 92.04 547.722 90.06C544.482 88.08 541.827 85.47 539.757 82.23C537.777 78.99 536.787 74.85 536.787 69.81C536.787 64.41 538.227 59.505 541.107 55.095C544.077 50.595 548.487 47.04 554.337 44.43C560.277 41.73 567.702 40.38 576.612 40.38C582.552 40.38 588.402 41.1 594.162 42.54C599.922 43.89 605.007 45.96 609.417 48.75L602.667 65.355C598.257 62.835 593.847 60.99 589.437 59.82C585.027 58.56 580.707 57.93 576.477 57.93C572.247 57.93 568.782 58.425 566.082 59.415C563.382 60.405 561.447 61.71 560.277 63.33C559.107 64.86 558.522 66.66 558.522 68.73C558.522 71.16 559.512 73.14 561.492 74.67C563.472 76.11 566.082 77.28 569.322 78.18C572.562 79.08 576.117 79.98 579.987 80.88C583.947 81.78 587.862 82.815 591.732 83.985C595.692 85.155 599.292 86.73 602.532 88.71C605.772 90.69 608.382 93.3 610.362 96.54C612.432 99.78 613.467 103.875 613.467 108.825C613.467 114.135 611.982 118.995 609.012 123.405C606.042 127.815 601.587 131.37 595.647 134.07C589.797 136.77 582.372 138.12 573.372 138.12ZM693.211 42H715.081V136.5H693.211V42ZM650.281 136.5H628.411V42H650.281V136.5ZM694.831 97.755H648.661V79.26H694.831V97.755ZM783.339 138.12C775.869 138.12 768.939 136.905 762.549 134.475C756.249 132.045 750.759 128.625 746.079 124.215C741.489 119.805 737.889 114.63 735.279 108.69C732.759 102.75 731.499 96.27 731.499 89.25C731.499 82.23 732.759 75.75 735.279 69.81C737.889 63.87 741.534 58.695 746.214 54.285C750.894 49.875 756.384 46.455 762.684 44.025C768.984 41.595 775.824 40.38 783.204 40.38C790.674 40.38 797.514 41.595 803.724 44.025C810.024 46.455 815.469 49.875 820.059 54.285C824.739 58.695 828.384 63.87 830.994 69.81C833.604 75.66 834.909 82.14 834.909 89.25C834.909 96.27 833.604 102.795 830.994 108.825C828.384 114.765 824.739 119.94 820.059 124.35C815.469 128.67 810.024 132.045 803.724 134.475C797.514 136.905 790.719 138.12 783.339 138.12ZM783.204 119.49C787.434 119.49 791.304 118.77 794.814 117.33C798.414 115.89 801.564 113.82 804.264 111.12C806.964 108.42 809.034 105.225 810.474 101.535C812.004 97.845 812.769 93.75 812.769 89.25C812.769 84.75 812.004 80.655 810.474 76.965C809.034 73.275 806.964 70.08 804.264 67.38C801.654 64.68 798.549 62.61 794.949 61.17C791.349 59.73 787.434 59.01 783.204 59.01C778.974 59.01 775.059 59.73 771.459 61.17C767.949 62.61 764.844 64.68 762.144 67.38C759.444 70.08 757.329 73.275 755.799 76.965C754.359 80.655 753.639 84.75 753.639 89.25C753.639 93.66 754.359 97.755 755.799 101.535C757.329 105.225 759.399 108.42 762.009 111.12C764.709 113.82 767.859 115.89 771.459 117.33C775.059 118.77 778.974 119.49 783.204 119.49ZM851.346 136.5V42H892.251C900.711 42 908.001 43.395 914.121 46.185C920.241 48.885 924.966 52.8 928.296 57.93C931.626 63.06 933.291 69.18 933.291 76.29C933.291 83.31 931.626 89.385 928.296 94.515C924.966 99.645 920.241 103.605 914.121 106.395C908.001 109.095 900.711 110.445 892.251 110.445H863.496L873.216 100.59V136.5H851.346ZM873.216 103.02L863.496 92.625H891.036C897.786 92.625 902.826 91.185 906.156 88.305C909.486 85.425 911.151 81.42 911.151 76.29C911.151 71.07 909.486 67.02 906.156 64.14C902.826 61.26 897.786 59.82 891.036 59.82H863.496L873.216 49.425V103.02Z" fill="#333333"/>
<path d="M104.885 131.5L103.935 131.811L104.16 132.5H104.885V131.5ZM73.97 37V36H72.5907L73.0196 37.3109L73.97 37ZM96.65 37L97.6022 36.6944L97.3793 36H96.65V37ZM123.515 120.7V121.7H124.886L124.467 120.394L123.515 120.7ZM112.175 120.7L111.227 120.382L110.785 121.7H112.175V120.7ZM140.255 37V36H139.536L139.307 36.6819L140.255 37ZM160.505 37L161.457 36.693L161.233 36H160.505V37ZM187.505 120.7V121.7H188.878L188.457 120.393L187.505 120.7ZM176.57 120.7L175.62 120.387L175.188 121.7H176.57V120.7ZM204.11 37V36H203.386L203.16 36.6874L204.11 37ZM225.035 37L225.985 37.3109L226.414 36H225.035V37ZM194.12 131.5V132.5H194.845L195.07 131.811L194.12 131.5ZM170.63 131.5L169.679 131.809L169.904 132.5H170.63V131.5ZM146.735 58.06V57.06H145.358L145.784 58.3694L146.735 58.06ZM152.945 58.06L153.893 58.3773L154.334 57.06H152.945V58.06ZM128.375 131.5V132.5H129.095L129.323 131.817L128.375 131.5ZM105.835 131.189L74.9204 36.6891L73.0196 37.3109L103.935 131.811L105.835 131.189ZM73.97 38H96.65V36H73.97V38ZM95.6978 37.3056L122.563 121.006L124.467 120.394L97.6022 36.6944L95.6978 37.3056ZM123.515 119.7H112.175V121.7H123.515V119.7ZM113.123 121.018L141.203 37.3181L139.307 36.6819L111.227 120.382L113.123 121.018ZM140.255 38H160.505V36H140.255V38ZM159.553 37.307L186.553 121.007L188.457 120.393L161.457 36.693L159.553 37.307ZM187.505 119.7H176.57V121.7H187.505V119.7ZM177.52 121.013L205.06 37.3125L203.16 36.6874L175.62 120.387L177.52 121.013ZM204.11 38H225.035V36H204.11V38ZM224.085 36.6891L193.17 131.189L195.07 131.811L225.985 37.3109L224.085 36.6891ZM194.12 130.5H170.63V132.5H194.12V130.5ZM171.581 131.191L147.686 57.7506L145.784 58.3694L169.679 131.809L171.581 131.191ZM146.735 59.06H152.945V57.06H146.735V59.06ZM151.997 57.7427L127.427 131.183L129.323 131.817L153.893 58.3773L151.997 57.7427ZM128.375 130.5H104.885V132.5H128.375V130.5ZM261.299 129.475L260.939 130.408L260.944 130.41L261.299 129.475ZM244.829 119.215L244.137 119.936L244.144 119.943L244.829 119.215ZM234.029 103.69L233.109 104.081L233.114 104.092L234.029 103.69ZM234.029 64.81L233.114 64.4077L233.109 64.4194L234.029 64.81ZM261.434 39.025L261.075 38.092L261.434 39.025ZM302.474 39.025L302.11 39.9562L302.115 39.958L302.474 39.025ZM318.809 49.285L318.117 50.0061L318.124 50.0128L318.809 49.285ZM329.744 64.81L328.829 65.2123L328.831 65.2174L329.744 64.81ZM329.744 103.825L330.66 104.227L330.662 104.222L329.744 103.825ZM318.809 119.35L319.495 120.078L319.495 120.078L318.809 119.35ZM302.474 129.475L302.115 128.542L302.11 128.544L302.474 129.475ZM293.564 112.33L293.193 111.401L293.185 111.405L293.564 112.33ZM303.014 106.12L302.307 105.413L303.014 106.12ZM309.224 96.535L308.301 96.152L308.297 96.1617L308.293 96.1715L309.224 96.535ZM309.224 71.965L308.293 72.3285L308.297 72.3383L308.301 72.348L309.224 71.965ZM303.014 62.38L302.295 63.075L302.301 63.0811L302.307 63.0871L303.014 62.38ZM293.699 56.17L293.328 57.0985L293.699 56.17ZM270.209 56.17L269.838 55.2415L269.83 55.2448L270.209 56.17ZM260.894 62.38L261.601 63.0871L260.894 62.38ZM254.549 71.965L253.626 71.582L253.622 71.5917L253.618 71.6015L254.549 71.965ZM254.549 96.535L253.615 96.891L253.62 96.9046L253.626 96.918L254.549 96.535ZM260.759 106.12L260.04 106.815L260.046 106.821L260.052 106.827L260.759 106.12ZM270.209 112.33L269.838 113.258L270.209 112.33ZM282.089 132.12C274.73 132.12 267.921 130.923 261.655 128.54L260.944 130.41C267.458 132.887 274.509 134.12 282.089 134.12V132.12ZM261.659 128.542C255.474 126.156 250.096 122.804 245.515 118.487L244.144 119.943C248.923 124.446 254.525 127.934 260.939 130.408L261.659 128.542ZM245.522 118.494C241.028 114.176 237.503 109.11 234.945 103.288L233.114 104.092C235.775 110.15 239.45 115.434 244.137 119.936L245.522 118.494ZM234.95 103.299C232.487 97.4935 231.249 91.1477 231.249 84.25H229.249C229.249 91.3923 230.532 98.0065 233.109 104.081L234.95 103.299ZM231.249 84.25C231.249 77.3523 232.487 71.0065 234.95 65.2005L233.109 64.4194C230.532 70.4935 229.249 77.1077 229.249 84.25H231.249ZM234.945 65.2123C237.501 59.394 241.069 54.3299 245.65 50.0128L244.279 48.5572C239.5 53.0601 235.777 58.346 233.114 64.4077L234.945 65.2123ZM245.65 50.0128C250.231 45.6961 255.609 42.3437 261.794 39.958L261.075 38.092C254.66 40.5663 249.058 44.0539 244.279 48.5572L245.65 50.0128ZM261.794 39.958C267.969 37.5762 274.686 36.38 281.954 36.38V34.38C274.463 34.38 267.5 35.6138 261.075 38.092L261.794 39.958ZM281.954 36.38C289.315 36.38 296.029 37.5768 302.11 39.9562L302.839 38.0938C296.5 35.6132 289.534 34.38 281.954 34.38V36.38ZM302.115 39.958C308.298 42.3431 313.628 45.6937 318.117 50.0061L319.502 48.5639C314.811 44.0563 309.251 40.5669 302.834 38.092L302.115 39.958ZM318.124 50.0128C322.705 54.3299 326.272 59.394 328.829 65.2123L330.66 64.4077C327.996 58.346 324.274 53.0601 319.495 48.5572L318.124 50.0128ZM328.831 65.2174C331.378 70.9258 332.659 77.2649 332.659 84.25H334.659C334.659 77.0151 333.331 70.3942 330.658 64.4026L328.831 65.2174ZM332.659 84.25C332.659 91.1428 331.379 97.5316 328.827 103.428L330.662 104.222C333.33 98.0584 334.659 91.3972 334.659 84.25H332.659ZM328.829 103.423C326.272 109.241 322.705 114.305 318.124 118.622L319.495 120.078C324.274 115.575 327.996 110.289 330.66 104.227L328.829 103.423ZM318.124 118.622C313.635 122.847 308.302 126.155 302.115 128.542L302.834 130.408C309.246 127.935 314.804 124.493 319.495 120.078L318.124 118.622ZM302.11 128.544C296.028 130.924 289.358 132.12 282.089 132.12V134.12C289.581 134.12 296.501 132.886 302.839 130.406L302.11 128.544ZM281.954 115.49C286.3 115.49 290.3 114.75 293.944 113.255L293.185 111.405C289.808 112.79 286.069 113.49 281.954 113.49V115.49ZM293.936 113.258C297.66 111.769 300.924 109.624 303.721 106.827L302.307 105.413C299.705 108.016 296.669 110.011 293.193 111.402L293.936 113.258ZM303.721 106.827C306.523 104.026 308.668 100.712 310.156 96.8985L308.293 96.1715C306.901 99.7376 304.906 102.814 302.307 105.413L303.721 106.827ZM310.148 96.918C311.734 93.0922 312.519 88.8649 312.519 84.25H310.519C310.519 88.6351 309.774 92.5978 308.301 96.152L310.148 96.918ZM312.519 84.25C312.519 79.6351 311.734 75.4078 310.148 71.582L308.301 72.348C309.774 75.9022 310.519 79.8649 310.519 84.25H312.519ZM310.156 71.6015C308.668 67.7876 306.523 64.4743 303.721 61.6729L302.307 63.0871C304.906 65.6857 306.901 68.7624 308.293 72.3285L310.156 71.6015ZM303.733 61.685C301.022 58.8802 297.797 56.7322 294.071 55.2415L293.328 57.0985C296.801 58.4878 299.787 60.4798 302.295 63.075L303.733 61.685ZM294.071 55.2415C290.342 53.7501 286.3 53.01 281.954 53.01V55.01C286.069 55.01 289.856 55.7099 293.328 57.0985L294.071 55.2415ZM281.954 53.01C277.609 53.01 273.566 53.7501 269.838 55.2415L270.581 57.0985C274.052 55.7099 277.84 55.01 281.954 55.01V53.01ZM269.83 55.2448C266.196 56.7354 262.98 58.8798 260.187 61.6729L261.601 63.0871C264.208 60.4801 267.202 58.4846 270.589 57.0952L269.83 55.2448ZM260.187 61.6729C257.39 64.4699 255.204 67.7765 253.626 71.582L255.473 72.348C256.955 68.7735 258.999 65.6901 261.601 63.0871L260.187 61.6729ZM253.618 71.6015C252.127 75.422 251.389 79.6424 251.389 84.25H253.389C253.389 79.8576 254.092 75.888 255.481 72.3285L253.618 71.6015ZM251.389 84.25C251.389 88.7707 252.128 92.9874 253.615 96.891L255.484 96.179C254.091 92.5225 253.389 88.5493 253.389 84.25H251.389ZM253.626 96.918C255.201 100.716 257.338 104.019 260.04 106.815L261.478 105.425C258.961 102.821 256.958 99.7335 255.473 96.152L253.626 96.918ZM260.052 106.827C262.85 109.624 266.114 111.769 269.838 113.258L270.581 111.402C267.105 110.011 264.069 108.016 261.466 105.413L260.052 106.827ZM269.838 113.258C273.566 114.75 277.609 115.49 281.954 115.49V113.49C277.84 113.49 274.052 112.79 270.581 111.402L269.838 113.258ZM350.096 131.5H349.096V132.5H350.096V131.5ZM350.096 37V36H349.096V37H350.096ZM412.871 41.185L412.456 42.095L412.467 42.0999L412.871 41.185ZM427.046 52.93L426.207 53.4745L427.046 52.93ZM427.046 89.515L427.88 90.0663L427.884 90.0595L427.046 89.515ZM412.871 101.125L413.274 102.04L412.871 101.125ZM362.246 105.175L361.543 104.463L359.807 106.175H362.246V105.175ZM371.966 95.59H372.966V93.1995L371.263 94.878L371.966 95.59ZM371.966 131.5V132.5H372.966V131.5H371.966ZM410.171 131.5L409.347 132.067L409.645 132.5H410.171V131.5ZM386.546 97.21V96.21H384.642L385.722 97.7774L386.546 97.21ZM409.901 97.21L410.721 96.6383L410.423 96.21H409.901V97.21ZM433.796 131.5V132.5H435.711L434.616 130.928L433.796 131.5ZM371.966 98.02L371.24 98.7077L372.966 100.53V98.02H371.966ZM362.246 87.76V86.76H359.921L361.52 88.4477L362.246 87.76ZM404.906 83.44L405.56 84.1964L405.566 84.1914L405.571 84.1863L404.906 83.44ZM362.246 54.82L361.515 54.137L359.941 55.82H362.246V54.82ZM371.966 44.425H372.966V41.8914L371.235 43.742L371.966 44.425ZM351.096 131.5V37H349.096V131.5H351.096ZM350.096 38H391.001V36H350.096V38ZM391.001 38C399.353 38 406.495 39.3775 412.456 42.0949L413.285 40.2751C407.006 37.4125 399.568 36 391.001 36V38ZM412.467 42.0999C418.426 44.729 422.993 48.5229 426.207 53.4745L427.884 52.3855C424.439 47.0771 419.555 43.0409 413.274 40.2701L412.467 42.0999ZM426.207 53.4745C429.415 58.4174 431.041 64.3412 431.041 71.29H433.041C433.041 64.0188 431.336 57.7026 427.884 52.3855L426.207 53.4745ZM431.041 71.29C431.041 78.146 429.417 84.0256 426.207 88.9705L427.884 90.0595C431.335 84.7444 433.041 78.4739 433.041 71.29H431.041ZM426.211 88.9637C422.998 93.8268 418.431 97.5789 412.467 100.21L413.274 102.04C419.55 99.2711 424.433 95.2832 427.88 90.0663L426.211 88.9637ZM412.467 100.21C406.503 102.841 399.357 104.175 391.001 104.175V106.175C399.564 106.175 406.998 104.809 413.274 102.04L412.467 100.21ZM391.001 104.175H362.246V106.175H391.001V104.175ZM362.948 105.887L372.668 96.302L371.263 94.878L361.543 104.463L362.948 105.887ZM370.966 95.59V131.5H372.966V95.59H370.966ZM371.966 130.5H350.096V132.5H371.966V130.5ZM410.994 130.933L387.369 96.6426L385.722 97.7774L409.347 132.067L410.994 130.933ZM386.546 98.21H409.901V96.21H386.546V98.21ZM409.08 97.7817L432.975 132.072L434.616 130.928L410.721 96.6383L409.08 97.7817ZM433.796 130.5H410.171V132.5H433.796V130.5ZM372.692 97.3323L362.972 87.0723L361.52 88.4477L371.24 98.7077L372.692 97.3323ZM362.246 88.76H389.786V86.76H362.246V88.76ZM389.786 88.76C396.653 88.76 401.973 87.2986 405.56 84.1964L404.251 82.6836C401.178 85.3414 396.418 86.76 389.786 86.76V88.76ZM405.571 84.1863C409.147 80.9973 410.901 76.6579 410.901 71.29H408.901C408.901 76.1821 407.324 79.9427 404.24 82.6937L405.571 84.1863ZM410.901 71.29C410.901 65.8389 409.151 61.4892 405.56 58.3836L404.251 59.8964C407.321 62.5508 408.901 66.3011 408.901 71.29H410.901ZM405.56 58.3836C401.973 55.2814 396.653 53.82 389.786 53.82V55.82C396.418 55.82 401.178 57.2386 404.251 59.8964L405.56 58.3836ZM389.786 53.82H362.246V55.82H389.786V53.82ZM362.976 55.503L372.696 45.108L371.235 43.742L361.515 54.137L362.976 55.503ZM370.966 44.425V98.02H372.966V44.425H370.966ZM468.943 109.9L467.944 109.948L468.056 112.271L469.665 110.592L468.943 109.9ZM467.728 84.655L467.003 83.9666L466.709 84.2764L466.729 84.7031L467.728 84.655ZM512.953 37V36H512.523L512.228 36.3116L512.953 37ZM537.253 37L537.986 37.6807L539.547 36H537.253V37ZM496.483 80.875L497.213 81.5589L497.216 81.5557L496.483 80.875ZM484.333 93.835L485.055 94.5268L485.063 94.5189L484.333 93.835ZM449.368 131.5H448.368V132.5H449.368V131.5ZM449.368 37V36H448.368V37H449.368ZM471.103 37H472.103V36H471.103V37ZM471.103 131.5V132.5H472.103V131.5H471.103ZM514.033 131.5L513.258 132.132L513.559 132.5H514.033V131.5ZM480.418 90.325L479.683 89.6472L479.095 90.2853L479.643 90.9574L480.418 90.325ZM494.728 74.8L495.513 74.1799L494.786 73.2612L493.993 74.1222L494.728 74.8ZM539.548 131.5V132.5H541.613L540.333 130.88L539.548 131.5ZM469.942 109.852L468.727 84.6069L466.729 84.7031L467.944 109.948L469.942 109.852ZM468.453 85.3434L513.678 37.6884L512.228 36.3116L467.003 83.9666L468.453 85.3434ZM512.953 38H537.253V36H512.953V38ZM536.521 36.3193L495.751 80.1943L497.216 81.5557L537.986 37.6807L536.521 36.3193ZM495.754 80.1911L483.604 93.1511L485.063 94.5189L497.213 81.5589L495.754 80.1911ZM483.611 93.1432L468.221 109.208L469.665 110.592L485.055 94.5268L483.611 93.1432ZM450.368 131.5V37H448.368V131.5H450.368ZM449.368 38H471.103V36H449.368V38ZM470.103 37V131.5H472.103V37H470.103ZM471.103 130.5H449.368V132.5H471.103V130.5ZM514.808 130.868L481.193 89.6926L479.643 90.9574L513.258 132.132L514.808 130.868ZM481.153 91.0027L495.463 75.4777L493.993 74.1222L479.683 89.6472L481.153 91.0027ZM493.944 75.4201L538.764 132.12L540.333 130.88L495.513 74.1799L493.944 75.4201ZM539.548 130.5H514.033V132.5H539.548V130.5ZM556.637 130.15L556.351 131.108L556.362 131.112L556.637 130.15ZM539.897 122.185L538.986 121.774L538.66 122.497L539.289 122.979L539.897 122.185ZM547.322 105.715L547.902 104.9L546.91 104.195L546.411 105.304L547.322 105.715ZM561.632 112.87L561.307 113.816L561.316 113.819L561.325 113.822L561.632 112.87ZM588.902 114.355L589.199 115.31L589.209 115.307L589.218 115.304L588.902 114.355ZM594.842 110.71L594.07 110.074L594.842 110.71ZM593.762 99.505L593.151 100.296L593.162 100.305L593.174 100.314L593.762 99.505ZM585.932 95.86L585.64 96.8164L585.652 96.8201L585.665 96.8235L585.932 95.86ZM575.132 93.16L574.906 94.134L574.919 94.137L574.932 94.1397L575.132 93.16ZM563.387 89.92L563.078 90.8709L563.084 90.8729L563.387 89.92ZM552.722 85.06L552.201 85.9133L552.722 85.06ZM544.757 77.23L543.904 77.7514L543.909 77.76L543.914 77.7684L544.757 77.23ZM546.107 50.095L545.273 49.5441L545.27 49.5482L546.107 50.095ZM559.337 39.43L559.745 40.3432L559.751 40.3404L559.337 39.43ZM599.162 37.54L598.92 38.5101L598.927 38.5119L598.934 38.5136L599.162 37.54ZM614.417 43.75L615.344 44.1266L615.658 43.352L614.952 42.9049L614.417 43.75ZM607.667 60.355L607.171 61.2232L608.163 61.7902L608.594 60.7316L607.667 60.355ZM594.437 54.82L594.162 55.7815L594.172 55.7841L594.181 55.7866L594.437 54.82ZM571.082 54.415L570.738 53.4761L571.082 54.415ZM565.277 58.33L566.072 58.9374L566.08 58.9266L566.088 58.9155L565.277 58.33ZM566.492 69.67L565.881 70.4613L565.892 70.4702L565.904 70.4787L566.492 69.67ZM574.322 73.18L574.055 74.1435L574.322 73.18ZM584.987 75.88L584.761 76.854L584.766 76.8551L584.987 75.88ZM596.732 78.985L596.443 79.9422L596.449 79.944L596.732 78.985ZM607.532 83.71L608.054 82.8567L607.532 83.71ZM615.362 91.54L614.509 92.0614L614.514 92.07L614.519 92.0784L615.362 91.54ZM614.012 118.405L614.842 118.964L614.012 118.405ZM600.647 129.07L600.233 128.16L600.228 128.162L600.647 129.07ZM578.372 132.12C570.901 132.12 563.748 131.142 556.912 129.188L556.362 131.112C563.386 133.118 570.724 134.12 578.372 134.12V132.12ZM556.923 129.192C550.071 127.145 544.611 124.536 540.505 121.391L539.289 122.979C543.643 126.314 549.344 129.015 556.351 131.108L556.923 129.192ZM540.809 122.596L548.234 106.126L546.411 105.304L538.986 121.774L540.809 122.596ZM546.743 106.53C550.882 109.474 555.741 111.899 561.307 113.816L561.958 111.924C556.543 110.061 551.862 107.716 547.902 104.9L546.743 106.53ZM561.325 113.822C567.001 115.653 572.729 116.57 578.507 116.57V114.57C572.945 114.57 567.423 113.687 561.939 111.918L561.325 113.822ZM578.507 116.57C582.877 116.57 586.454 116.162 589.199 115.31L588.606 113.4C586.131 114.168 582.778 114.57 578.507 114.57V116.57ZM589.218 115.304C592.023 114.369 594.193 113.071 595.614 111.346L594.07 110.074C592.971 111.409 591.181 112.541 588.586 113.406L589.218 115.304ZM595.614 111.346C597.021 109.637 597.732 107.657 597.732 105.445H595.732C595.732 107.193 595.183 108.723 594.07 110.074L595.614 111.346ZM597.732 105.445C597.732 102.616 596.598 100.331 594.35 98.6963L593.174 100.314C594.886 101.559 595.732 103.234 595.732 105.445H597.732ZM594.374 98.7137C592.263 97.0825 589.524 95.8199 586.2 94.8965L585.665 96.8235C588.82 97.7001 591.302 98.8675 593.151 100.296L594.374 98.7137ZM586.224 94.9036C582.949 93.9029 579.318 92.9955 575.333 92.1803L574.932 94.1397C578.867 94.9445 582.435 95.8371 585.64 96.8164L586.224 94.9036ZM575.359 92.186C571.516 91.2923 567.626 90.2194 563.69 88.9671L563.084 90.8729C567.068 92.1406 571.009 93.2277 574.906 94.134L575.359 92.186ZM563.697 88.9691C559.896 87.7316 556.412 86.1432 553.244 84.2067L552.201 85.9133C555.512 87.9368 559.139 89.5884 563.078 90.8709L563.697 88.9691ZM553.244 84.2067C550.135 82.3069 547.589 79.8053 545.6 76.6916L543.914 77.7684C546.065 81.1347 548.829 83.8531 552.201 85.9133L553.244 84.2067ZM545.61 76.7085C543.753 73.669 542.787 69.7246 542.787 64.81H540.787C540.787 69.9754 541.801 74.311 543.904 77.7514L545.61 76.7085ZM542.787 64.81C542.787 59.599 544.173 54.8849 546.944 50.6418L545.27 49.5482C542.281 54.1251 540.787 59.221 540.787 64.81H542.787ZM546.942 50.6458C549.788 46.3327 554.035 42.8904 559.745 40.3432L558.93 38.5168C552.939 41.1896 548.366 44.8573 545.273 49.5442L546.942 50.6458ZM559.751 40.3404C565.523 37.7169 572.796 36.38 581.612 36.38V34.38C572.609 34.38 565.032 35.7431 558.923 38.5196L559.751 40.3404ZM581.612 36.38C587.47 36.38 593.239 37.09 598.92 38.5101L599.405 36.5699C593.565 35.11 587.634 34.38 581.612 34.38V36.38ZM598.934 38.5136C604.6 39.8415 609.578 41.8721 613.883 44.5951L614.952 42.9049C610.436 40.0479 605.245 37.9385 599.39 36.5664L598.934 38.5136ZM613.491 43.3734L606.741 59.9784L608.594 60.7316L615.344 44.1266L613.491 43.3734ZM608.163 59.4868C603.686 56.9285 599.196 55.048 594.694 53.8534L594.181 55.7866C598.498 56.932 602.828 58.7415 607.171 61.2232L608.163 59.4868ZM594.712 53.8585C590.22 52.5751 585.808 51.93 581.477 51.93V53.93C585.607 53.93 589.834 54.5449 594.162 55.7815L594.712 53.8585ZM581.477 51.93C577.18 51.93 573.587 52.4314 570.738 53.4761L571.426 55.3539C573.977 54.4186 577.314 53.93 581.477 53.93V51.93ZM570.738 53.4761C567.929 54.506 565.794 55.9063 564.467 57.7445L566.088 58.9155C567.1 57.5137 568.835 56.304 571.426 55.3539L570.738 53.4761ZM564.483 57.7225C563.169 59.4403 562.522 61.4579 562.522 63.73H564.522C564.522 61.8621 565.045 60.2796 566.072 58.9374L564.483 57.7225ZM562.522 63.73C562.522 66.4803 563.664 68.7485 565.881 70.4613L567.104 68.8787C565.36 67.5315 564.522 65.8397 564.522 63.73H562.522ZM565.904 70.4787C568.009 72.01 570.739 73.2226 574.055 74.1435L574.59 72.2165C571.425 71.3374 568.935 70.21 567.08 68.8613L565.904 70.4787ZM574.055 74.1435C577.31 75.0479 580.879 75.9514 584.761 76.854L585.214 74.906C581.355 74.0086 577.814 73.1121 574.59 72.2165L574.055 74.1435ZM584.766 76.8551C588.703 77.75 592.595 78.779 596.443 79.9422L597.022 78.0278C593.129 76.851 589.192 75.81 585.209 74.9049L584.766 76.8551ZM596.449 79.944C600.332 81.0914 603.851 82.6325 607.011 84.5633L608.054 82.8567C604.733 80.8275 601.052 79.2186 597.016 78.026L596.449 79.944ZM607.011 84.5633C610.115 86.4606 612.612 88.9568 614.509 92.0614L616.215 91.0185C614.153 87.6432 611.429 84.9194 608.054 82.8567L607.011 84.5633ZM614.519 92.0784C616.461 95.1174 617.467 99.0116 617.467 103.825H619.467C619.467 98.7384 618.403 94.4426 616.205 91.0016L614.519 92.0784ZM617.467 103.825C617.467 108.936 616.042 113.601 613.183 117.846L614.842 118.964C617.923 114.389 619.467 109.334 619.467 103.825H617.467ZM613.183 117.846C610.337 122.071 606.043 125.519 600.233 128.16L601.061 129.98C607.131 127.221 611.747 123.559 614.842 118.964L613.183 117.846ZM600.228 128.162C594.551 130.782 587.281 132.12 578.372 132.12V134.12C587.463 134.12 595.044 132.758 601.066 129.978L600.228 128.162ZM698.211 37V36H697.211V37H698.211ZM720.081 37H721.081V36H720.081V37ZM720.081 131.5V132.5H721.081V131.5H720.081ZM698.211 131.5H697.211V132.5H698.211V131.5ZM655.281 131.5V132.5H656.281V131.5H655.281ZM633.411 131.5H632.411V132.5H633.411V131.5ZM633.411 37V36H632.411V37H633.411ZM655.281 37H656.281V36H655.281V37ZM699.831 92.755V93.755H700.831V92.755H699.831ZM653.661 92.755H652.661V93.755H653.661V92.755ZM653.661 74.26V73.26H652.661V74.26H653.661ZM699.831 74.26H700.831V73.26H699.831V74.26ZM698.211 38H720.081V36H698.211V38ZM719.081 37V131.5H721.081V37H719.081ZM720.081 130.5H698.211V132.5H720.081V130.5ZM699.211 131.5V37H697.211V131.5H699.211ZM655.281 130.5H633.411V132.5H655.281V130.5ZM634.411 131.5V37H632.411V131.5H634.411ZM633.411 38H655.281V36H633.411V38ZM654.281 37V131.5H656.281V37H654.281ZM699.831 91.755H653.661V93.755H699.831V91.755ZM654.661 92.755V74.26H652.661V92.755H654.661ZM653.661 75.26H699.831V73.26H653.661V75.26ZM698.831 74.26V92.755H700.831V74.26H698.831ZM767.549 129.475L767.19 130.408L767.194 130.41L767.549 129.475ZM751.079 119.215L750.387 119.936L750.394 119.943L751.079 119.215ZM740.279 103.69L739.359 104.081L739.364 104.092L740.279 103.69ZM740.279 64.81L739.364 64.4077L739.359 64.4194L740.279 64.81ZM767.684 39.025L767.325 38.092L767.684 39.025ZM808.724 39.025L808.36 39.9562L808.365 39.958L808.724 39.025ZM825.059 49.285L824.367 50.0061L824.374 50.0128L825.059 49.285ZM835.994 64.81L835.079 65.2123L835.081 65.2174L835.994 64.81ZM835.994 103.825L836.91 104.227L836.912 104.222L835.994 103.825ZM825.059 119.35L825.745 120.078L825.745 120.078L825.059 119.35ZM808.724 129.475L808.365 128.542L808.36 128.544L808.724 129.475ZM799.814 112.33L799.443 111.401L799.435 111.405L799.814 112.33ZM809.264 106.12L808.557 105.413L809.264 106.12ZM815.474 96.535L814.551 96.152L814.547 96.1617L814.543 96.1715L815.474 96.535ZM815.474 71.965L814.543 72.3285L814.547 72.3383L814.551 72.348L815.474 71.965ZM809.264 62.38L808.545 63.075L808.551 63.0811L808.557 63.0871L809.264 62.38ZM799.949 56.17L799.578 57.0985L799.949 56.17ZM776.459 56.17L776.088 55.2415L776.08 55.2448L776.459 56.17ZM767.144 62.38L767.852 63.0871L767.144 62.38ZM760.799 71.965L759.876 71.582L759.872 71.5917L759.868 71.6015L760.799 71.965ZM760.799 96.535L759.865 96.891L759.87 96.9046L759.876 96.918L760.799 96.535ZM767.009 106.12L766.29 106.815L766.296 106.821L766.302 106.827L767.009 106.12ZM776.459 112.33L776.088 113.258L776.459 112.33ZM788.339 132.12C780.98 132.12 774.171 130.923 767.905 128.54L767.194 130.41C773.708 132.887 780.759 134.12 788.339 134.12V132.12ZM767.909 128.542C761.724 126.156 756.346 122.804 751.765 118.487L750.394 119.943C755.173 124.446 760.775 127.934 767.19 130.408L767.909 128.542ZM751.772 118.494C747.278 114.176 743.753 109.11 741.195 103.288L739.364 104.092C742.025 110.15 745.7 115.434 750.387 119.936L751.772 118.494ZM741.2 103.299C738.737 97.4935 737.499 91.1477 737.499 84.25H735.499C735.499 91.3923 736.782 98.0065 739.359 104.081L741.2 103.299ZM737.499 84.25C737.499 77.3523 738.737 71.0065 741.2 65.2005L739.359 64.4194C736.782 70.4935 735.499 77.1077 735.499 84.25H737.499ZM741.195 65.2123C743.751 59.394 747.319 54.3299 751.9 50.0128L750.529 48.5572C745.75 53.0601 742.027 58.346 739.364 64.4077L741.195 65.2123ZM751.9 50.0128C756.481 45.6961 761.859 42.3437 768.044 39.958L767.325 38.092C760.91 40.5663 755.308 44.0539 750.529 48.5572L751.9 50.0128ZM768.044 39.958C774.219 37.5762 780.936 36.38 788.204 36.38V34.38C780.713 34.38 773.75 35.6138 767.325 38.092L768.044 39.958ZM788.204 36.38C795.565 36.38 802.279 37.5768 808.36 39.9562L809.089 38.0938C802.75 35.6132 795.784 34.38 788.204 34.38V36.38ZM808.365 39.958C814.548 42.3431 819.878 45.6937 824.367 50.0061L825.752 48.5639C821.061 44.0563 815.501 40.5669 809.084 38.092L808.365 39.958ZM824.374 50.0128C828.955 54.3299 832.522 59.394 835.079 65.2123L836.91 64.4077C834.246 58.346 830.524 53.0601 825.745 48.5572L824.374 50.0128ZM835.081 65.2174C837.628 70.9258 838.909 77.2649 838.909 84.25H840.909C840.909 77.0151 839.581 70.3942 836.908 64.4026L835.081 65.2174ZM838.909 84.25C838.909 91.1428 837.629 97.5316 835.077 103.428L836.912 104.222C839.58 98.0584 840.909 91.3972 840.909 84.25H838.909ZM835.079 103.423C832.522 109.241 828.955 114.305 824.374 118.622L825.745 120.078C830.524 115.575 834.246 110.289 836.91 104.227L835.079 103.423ZM824.374 118.622C819.885 122.847 814.552 126.155 808.365 128.542L809.084 130.408C815.496 127.935 821.054 124.493 825.745 120.078L824.374 118.622ZM808.36 128.544C802.278 130.924 795.608 132.12 788.339 132.12V134.12C795.831 134.12 802.751 132.886 809.089 130.406L808.36 128.544ZM788.204 115.49C792.55 115.49 796.55 114.75 800.194 113.255L799.435 111.405C796.058 112.79 792.319 113.49 788.204 113.49V115.49ZM800.186 113.258C803.91 111.769 807.174 109.624 809.971 106.827L808.557 105.413C805.955 108.016 802.919 110.011 799.443 111.402L800.186 113.258ZM809.971 106.827C812.773 104.026 814.918 100.712 816.406 96.8985L814.543 96.1715C813.151 99.7376 811.156 102.814 808.557 105.413L809.971 106.827ZM816.398 96.918C817.984 93.0922 818.769 88.8649 818.769 84.25H816.769C816.769 88.6351 816.024 92.5978 814.551 96.152L816.398 96.918ZM818.769 84.25C818.769 79.6351 817.984 75.4078 816.398 71.582L814.551 72.348C816.024 75.9022 816.769 79.8649 816.769 84.25H818.769ZM816.406 71.6015C814.918 67.7876 812.773 64.4743 809.971 61.6729L808.557 63.0871C811.156 65.6857 813.151 68.7624 814.543 72.3285L816.406 71.6015ZM809.983 61.685C807.272 58.8802 804.047 56.7322 800.321 55.2415L799.578 57.0985C803.051 58.4878 806.037 60.4798 808.545 63.075L809.983 61.685ZM800.321 55.2415C796.592 53.7501 792.55 53.01 788.204 53.01V55.01C792.319 55.01 796.106 55.7099 799.578 57.0985L800.321 55.2415ZM788.204 53.01C783.859 53.01 779.816 53.7501 776.088 55.2415L776.831 57.0985C780.302 55.7099 784.09 55.01 788.204 55.01V53.01ZM776.08 55.2448C772.446 56.7354 769.23 58.8798 766.437 61.6729L767.852 63.0871C770.458 60.4801 773.452 58.4846 776.839 57.0952L776.08 55.2448ZM766.437 61.6729C763.64 64.4699 761.454 67.7765 759.876 71.582L761.723 72.348C763.205 68.7735 765.249 65.6901 767.852 63.0871L766.437 61.6729ZM759.868 71.6015C758.377 75.422 757.639 79.6424 757.639 84.25H759.639C759.639 79.8576 760.342 75.888 761.731 72.3285L759.868 71.6015ZM757.639 84.25C757.639 88.7707 758.378 92.9874 759.865 96.891L761.734 96.179C760.341 92.5225 759.639 88.5493 759.639 84.25H757.639ZM759.876 96.918C761.451 100.716 763.588 104.019 766.29 106.815L767.728 105.425C765.211 102.821 763.208 99.7335 761.723 96.152L759.876 96.918ZM766.302 106.827C769.1 109.624 772.364 111.769 776.088 113.258L776.831 111.402C773.354 110.011 770.319 108.016 767.716 105.413L766.302 106.827ZM776.088 113.258C779.816 114.75 783.859 115.49 788.204 115.49V113.49C784.09 113.49 780.302 112.79 776.831 111.402L776.088 113.258ZM856.346 131.5H855.346V132.5H856.346V131.5ZM856.346 37V36H855.346V37H856.346ZM919.121 41.185L918.706 42.095L918.717 42.0999L919.121 41.185ZM933.296 52.93L932.457 53.4745L933.296 52.93ZM919.121 101.395L919.524 102.31L919.535 102.305L919.121 101.395ZM868.496 105.445L867.784 104.743L866.105 106.445H868.496V105.445ZM878.216 95.59H879.216V93.152L877.504 94.8878L878.216 95.59ZM878.216 131.5V132.5H879.216V131.5H878.216ZM878.216 98.02L877.485 98.703L879.216 100.554V98.02H878.216ZM868.496 87.625V86.625H866.191L867.765 88.308L868.496 87.625ZM868.496 54.82L867.765 54.137L866.191 55.82H868.496V54.82ZM878.216 44.425H879.216V41.8914L877.485 43.742L878.216 44.425ZM857.346 131.5V37H855.346V131.5H857.346ZM856.346 38H897.251V36H856.346V38ZM897.251 38C905.603 38 912.745 39.3775 918.706 42.0949L919.535 40.2751C913.256 37.4125 905.818 36 897.251 36V38ZM918.717 42.0999C924.676 44.729 929.243 48.5229 932.457 53.4745L934.134 52.3855C930.689 47.0771 925.805 43.0409 919.524 40.2701L918.717 42.0999ZM932.457 53.4745C935.665 58.4174 937.291 64.3412 937.291 71.29H939.291C939.291 64.0188 937.586 57.7026 934.134 52.3855L932.457 53.4745ZM937.291 71.29C937.291 78.146 935.667 84.0256 932.457 88.9705L934.134 90.0595C937.585 84.7444 939.291 78.4739 939.291 71.29H937.291ZM932.457 88.9705C929.241 93.9251 924.671 97.7659 918.706 100.485L919.535 102.305C925.811 99.4441 930.691 95.3649 934.134 90.0595L932.457 88.9705ZM918.717 100.48C912.753 103.111 905.607 104.445 897.251 104.445V106.445C905.814 106.445 913.248 105.079 919.524 102.31L918.717 100.48ZM897.251 104.445H868.496V106.445H897.251V104.445ZM869.208 106.147L878.928 96.2922L877.504 94.8878L867.784 104.743L869.208 106.147ZM877.216 95.59V131.5H879.216V95.59H877.216ZM878.216 130.5H856.346V132.5H878.216V130.5ZM878.946 97.337L869.226 86.942L867.765 88.308L877.485 98.703L878.946 97.337ZM868.496 88.625H896.036V86.625H868.496V88.625ZM896.036 88.625C902.903 88.625 908.223 87.1636 911.81 84.0614L910.501 82.5486C907.428 85.2064 902.668 86.625 896.036 86.625V88.625ZM911.81 84.0614C915.397 80.9592 917.151 76.6573 917.151 71.29H915.151C915.151 76.1827 913.575 79.8907 910.501 82.5486L911.81 84.0614ZM917.151 71.29C917.151 65.8389 915.401 61.4892 911.81 58.3836L910.501 59.8964C913.571 62.5508 915.151 66.3011 915.151 71.29H917.151ZM911.81 58.3836C908.223 55.2814 902.903 53.82 896.036 53.82V55.82C902.668 55.82 907.428 57.2386 910.501 59.8964L911.81 58.3836ZM896.036 53.82H868.496V55.82H896.036V53.82ZM869.226 55.503L878.946 45.108L877.485 43.742L867.765 54.137L869.226 55.503ZM877.216 44.425V98.02H879.216V44.425H877.216Z" fill="#F9F9F9"/>
<path d="M60.496 122.396C60.496 126.323 59.504 129.381 57.52 131.572C55.4947 133.763 52.498 134.858 48.53 134.858H19.266V125.186H48.406C49.8113 125.186 50.9067 124.814 51.692 124.07C52.436 123.326 52.808 122.313 52.808 121.032C52.808 119.503 52.3947 118.201 51.568 117.126L58.388 114.522C59.0907 115.514 59.628 116.713 60 118.118C60.3307 119.482 60.496 120.908 60.496 122.396ZM34.828 140.004H27.388V116.878H34.828V140.004ZM26.148 88.8186C26.148 86.1733 26.6853 83.8173 27.76 81.7506C28.7933 79.6426 30.4053 77.9893 32.596 76.7906C34.7453 75.592 37.5147 74.9926 40.904 74.9926H60L60 84.6646H42.392C39.7053 84.6646 37.7213 85.264 36.44 86.4626C35.1587 87.62 34.518 89.2733 34.518 91.4226C34.518 92.952 34.8487 94.3366 35.51 95.5766C36.13 96.7753 37.1013 97.726 38.424 98.4286C39.7467 99.09 41.4413 99.4206 43.508 99.4206H60V109.093H13.996V99.4206H35.882L33.092 101.591C30.86 100.392 29.1447 98.6766 27.946 96.4446C26.7473 94.2126 26.148 91.6706 26.148 88.8186ZM60.496 49.4293C60.496 53.2319 59.752 56.5799 58.264 59.4733C56.776 62.3253 54.7507 64.5366 52.188 66.1073C49.584 67.6779 46.6287 68.4633 43.322 68.4633C39.974 68.4633 37.0187 67.6986 34.456 66.1693C31.852 64.5986 29.8267 62.4699 28.38 59.7833C26.892 57.0966 26.148 54.0586 26.148 50.6693C26.148 47.4039 26.8507 44.4693 28.256 41.8653C29.62 39.2199 31.604 37.1326 34.208 35.6033C36.7707 34.0739 39.85 33.3093 43.446 33.3093C43.818 33.3093 44.252 33.3299 44.748 33.3713C45.2027 33.4126 45.6367 33.4539 46.05 33.4953V60.5893H40.408V38.5793L42.082 42.2993C40.346 42.2993 38.8373 42.6506 37.556 43.3533C36.2747 44.0559 35.2827 45.0273 34.58 46.2673C33.836 47.5073 33.464 48.9539 33.464 50.6073C33.464 52.2606 33.836 53.7279 34.58 55.0093C35.2827 56.2493 36.2953 57.2206 37.618 57.9233C38.8993 58.6259 40.4287 58.9773 42.206 58.9773H43.694C45.5127 58.9773 47.1247 58.5846 48.53 57.7993C49.894 56.9726 50.948 55.8359 51.692 54.3893C52.3947 52.9013 52.746 51.1653 52.746 49.1813C52.746 47.4039 52.4773 45.8539 51.94 44.5313C51.4027 43.1673 50.5967 41.9273 49.522 40.8113L55.102 35.6653C56.838 37.1946 58.1813 39.1166 59.132 41.4313C60.0413 43.7459 60.496 46.4119 60.496 49.4293Z" fill="#333333"/>
</svg>
