<svg width="675" height="171" viewBox="0 0 675 171" fill="none" xmlns="http://www.w3.org/2000/svg">
<path d="M108.255 138.12C100.695 138.12 93.45 137.13 86.52 135.15C79.59 133.08 74.01 130.425 69.78 127.185L77.205 110.715C81.255 113.595 86.025 115.98 91.515 117.87C97.095 119.67 102.72 120.57 108.39 120.57C112.71 120.57 116.175 120.165 118.785 119.355C121.485 118.455 123.465 117.24 124.725 115.71C125.985 114.18 126.615 112.425 126.615 110.445C126.615 107.925 125.625 105.945 123.645 104.505C121.665 102.975 119.055 101.76 115.815 100.86C112.575 99.87 108.975 98.97 105.015 98.16C101.145 97.26 97.23 96.18 93.27 94.92C89.4 93.66 85.845 92.04 82.605 90.06C79.365 88.08 76.71 85.47 74.64 82.23C72.66 78.99 71.67 74.85 71.67 69.81C71.67 64.41 73.11 59.505 75.99 55.095C78.96 50.595 83.37 47.04 89.22 44.43C95.16 41.73 102.585 40.38 111.495 40.38C117.435 40.38 123.285 41.1 129.045 42.54C134.805 43.89 139.89 45.96 144.3 48.75L137.55 65.355C133.14 62.835 128.73 60.99 124.32 59.82C119.91 58.56 115.59 57.93 111.36 57.93C107.13 57.93 103.665 58.425 100.965 59.415C98.265 60.405 96.33 61.71 95.16 63.33C93.99 64.86 93.405 66.66 93.405 68.73C93.405 71.16 94.395 73.14 96.375 74.67C98.355 76.11 100.965 77.28 104.205 78.18C107.445 79.08 111 79.98 114.87 80.88C118.83 81.78 122.745 82.815 126.615 83.985C130.575 85.155 134.175 86.73 137.415 88.71C140.655 90.69 143.265 93.3 145.245 96.54C147.315 99.78 148.35 103.875 148.35 108.825C148.35 114.135 146.865 118.995 143.895 123.405C140.925 127.815 136.47 131.37 130.53 134.07C124.68 136.77 117.255 138.12 108.255 138.12ZM208.519 138.12C201.229 138.12 194.434 136.95 188.134 134.61C181.924 132.18 176.524 128.76 171.934 124.35C167.344 119.94 163.744 114.765 161.134 108.825C158.614 102.885 157.354 96.36 157.354 89.25C157.354 82.14 158.614 75.615 161.134 69.675C163.744 63.735 167.344 58.56 171.934 54.15C176.614 49.74 182.059 46.365 188.269 44.025C194.479 41.595 201.274 40.38 208.654 40.38C216.844 40.38 224.224 41.82 230.794 44.7C237.454 47.49 243.034 51.63 247.534 57.12L233.494 70.08C230.254 66.39 226.654 63.645 222.694 61.845C218.734 59.955 214.414 59.01 209.734 59.01C205.324 59.01 201.274 59.73 197.584 61.17C193.894 62.61 190.699 64.68 187.999 67.38C185.299 70.08 183.184 73.275 181.654 76.965C180.214 80.655 179.494 84.75 179.494 89.25C179.494 93.75 180.214 97.845 181.654 101.535C183.184 105.225 185.299 108.42 187.999 111.12C190.699 113.82 193.894 115.89 197.584 117.33C201.274 118.77 205.324 119.49 209.734 119.49C214.414 119.49 218.734 118.59 222.694 116.79C226.654 114.9 230.254 112.065 233.494 108.285L247.534 121.245C243.034 126.735 237.454 130.92 230.794 133.8C224.224 136.68 216.799 138.12 208.519 138.12ZM327.103 42H348.973V136.5H327.103V42ZM284.173 136.5H262.303V42H284.173V136.5ZM328.723 97.755H282.553V79.26H328.723V97.755ZM417.231 138.12C409.761 138.12 402.831 136.905 396.441 134.475C390.141 132.045 384.651 128.625 379.971 124.215C375.381 119.805 371.781 114.63 369.171 108.69C366.651 102.75 365.391 96.27 365.391 89.25C365.391 82.23 366.651 75.75 369.171 69.81C371.781 63.87 375.426 58.695 380.106 54.285C384.786 49.875 390.276 46.455 396.576 44.025C402.876 41.595 409.716 40.38 417.096 40.38C424.566 40.38 431.406 41.595 437.616 44.025C443.916 46.455 449.361 49.875 453.951 54.285C458.631 58.695 462.276 63.87 464.886 69.81C467.496 75.66 468.801 82.14 468.801 89.25C468.801 96.27 467.496 102.795 464.886 108.825C462.276 114.765 458.631 119.94 453.951 124.35C449.361 128.67 443.916 132.045 437.616 134.475C431.406 136.905 424.611 138.12 417.231 138.12ZM417.096 119.49C421.326 119.49 425.196 118.77 428.706 117.33C432.306 115.89 435.456 113.82 438.156 111.12C440.856 108.42 442.926 105.225 444.366 101.535C445.896 97.845 446.661 93.75 446.661 89.25C446.661 84.75 445.896 80.655 444.366 76.965C442.926 73.275 440.856 70.08 438.156 67.38C435.546 64.68 432.441 62.61 428.841 61.17C425.241 59.73 421.326 59.01 417.096 59.01C412.866 59.01 408.951 59.73 405.351 61.17C401.841 62.61 398.736 64.68 396.036 67.38C393.336 70.08 391.221 73.275 389.691 76.965C388.251 80.655 387.531 84.75 387.531 89.25C387.531 93.66 388.251 97.755 389.691 101.535C391.221 105.225 393.291 108.42 395.901 111.12C398.601 113.82 401.751 115.89 405.351 117.33C408.951 118.77 412.866 119.49 417.096 119.49ZM531.137 138.12C523.667 138.12 516.737 136.905 510.347 134.475C504.047 132.045 498.557 128.625 493.877 124.215C489.287 119.805 485.687 114.63 483.077 108.69C480.557 102.75 479.297 96.27 479.297 89.25C479.297 82.23 480.557 75.75 483.077 69.81C485.687 63.87 489.332 58.695 494.012 54.285C498.692 49.875 504.182 46.455 510.482 44.025C516.782 41.595 523.622 40.38 531.002 40.38C538.472 40.38 545.312 41.595 551.522 44.025C557.822 46.455 563.267 49.875 567.857 54.285C572.537 58.695 576.182 63.87 578.792 69.81C581.402 75.66 582.707 82.14 582.707 89.25C582.707 96.27 581.402 102.795 578.792 108.825C576.182 114.765 572.537 119.94 567.857 124.35C563.267 128.67 557.822 132.045 551.522 134.475C545.312 136.905 538.517 138.12 531.137 138.12ZM531.002 119.49C535.232 119.49 539.102 118.77 542.612 117.33C546.212 115.89 549.362 113.82 552.062 111.12C554.762 108.42 556.832 105.225 558.272 101.535C559.802 97.845 560.567 93.75 560.567 89.25C560.567 84.75 559.802 80.655 558.272 76.965C556.832 73.275 554.762 70.08 552.062 67.38C549.452 64.68 546.347 62.61 542.747 61.17C539.147 59.73 535.232 59.01 531.002 59.01C526.772 59.01 522.857 59.73 519.257 61.17C515.747 62.61 512.642 64.68 509.942 67.38C507.242 70.08 505.127 73.275 503.597 76.965C502.157 80.655 501.437 84.75 501.437 89.25C501.437 93.66 502.157 97.755 503.597 101.535C505.127 105.225 507.197 108.42 509.807 111.12C512.507 113.82 515.657 115.89 519.257 117.33C522.857 118.77 526.772 119.49 531.002 119.49ZM599.143 136.5V42H621.013V118.68H668.398V136.5H599.143Z" fill="#F06F38"/>
<path d="M113.255 133.12C105.695 133.12 98.45 132.13 91.52 130.15C84.59 128.08 79.01 125.425 74.78 122.185L82.205 105.715C86.255 108.595 91.025 110.98 96.515 112.87C102.095 114.67 107.72 115.57 113.39 115.57C117.71 115.57 121.175 115.165 123.785 114.355C126.485 113.455 128.465 112.24 129.725 110.71C130.985 109.18 131.615 107.425 131.615 105.445C131.615 102.925 130.625 100.945 128.645 99.505C126.665 97.975 124.055 96.76 120.815 95.86C117.575 94.87 113.975 93.97 110.015 93.16C106.145 92.26 102.23 91.18 98.27 89.92C94.4 88.66 90.845 87.04 87.605 85.06C84.365 83.08 81.71 80.47 79.64 77.23C77.66 73.99 76.67 69.85 76.67 64.81C76.67 59.41 78.11 54.505 80.99 50.095C83.96 45.595 88.37 42.04 94.22 39.43C100.16 36.73 107.585 35.38 116.495 35.38C122.435 35.38 128.285 36.1 134.045 37.54C139.805 38.89 144.89 40.96 149.3 43.75L142.55 60.355C138.14 57.835 133.73 55.99 129.32 54.82C124.91 53.56 120.59 52.93 116.36 52.93C112.13 52.93 108.665 53.425 105.965 54.415C103.265 55.405 101.33 56.71 100.16 58.33C98.99 59.86 98.405 61.66 98.405 63.73C98.405 66.16 99.395 68.14 101.375 69.67C103.355 71.11 105.965 72.28 109.205 73.18C112.445 74.08 116 74.98 119.87 75.88C123.83 76.78 127.745 77.815 131.615 78.985C135.575 80.155 139.175 81.73 142.415 83.71C145.655 85.69 148.265 88.3 150.245 91.54C152.315 94.78 153.35 98.875 153.35 103.825C153.35 109.135 151.865 113.995 148.895 118.405C145.925 122.815 141.47 126.37 135.53 129.07C129.68 131.77 122.255 133.12 113.255 133.12ZM213.519 133.12C206.229 133.12 199.434 131.95 193.134 129.61C186.924 127.18 181.524 123.76 176.934 119.35C172.344 114.94 168.744 109.765 166.134 103.825C163.614 97.885 162.354 91.36 162.354 84.25C162.354 77.14 163.614 70.615 166.134 64.675C168.744 58.735 172.344 53.56 176.934 49.15C181.614 44.74 187.059 41.365 193.269 39.025C199.479 36.595 206.274 35.38 213.654 35.38C221.844 35.38 229.224 36.82 235.794 39.7C242.454 42.49 248.034 46.63 252.534 52.12L238.494 65.08C235.254 61.39 231.654 58.645 227.694 56.845C223.734 54.955 219.414 54.01 214.734 54.01C210.324 54.01 206.274 54.73 202.584 56.17C198.894 57.61 195.699 59.68 192.999 62.38C190.299 65.08 188.184 68.275 186.654 71.965C185.214 75.655 184.494 79.75 184.494 84.25C184.494 88.75 185.214 92.845 186.654 96.535C188.184 100.225 190.299 103.42 192.999 106.12C195.699 108.82 198.894 110.89 202.584 112.33C206.274 113.77 210.324 114.49 214.734 114.49C219.414 114.49 223.734 113.59 227.694 111.79C231.654 109.9 235.254 107.065 238.494 103.285L252.534 116.245C248.034 121.735 242.454 125.92 235.794 128.8C229.224 131.68 221.799 133.12 213.519 133.12ZM332.103 37H353.973V131.5H332.103V37ZM289.173 131.5H267.303V37H289.173V131.5ZM333.723 92.755H287.553V74.26H333.723V92.755ZM422.231 133.12C414.761 133.12 407.831 131.905 401.441 129.475C395.141 127.045 389.651 123.625 384.971 119.215C380.381 114.805 376.781 109.63 374.171 103.69C371.651 97.75 370.391 91.27 370.391 84.25C370.391 77.23 371.651 70.75 374.171 64.81C376.781 58.87 380.426 53.695 385.106 49.285C389.786 44.875 395.276 41.455 401.576 39.025C407.876 36.595 414.716 35.38 422.096 35.38C429.566 35.38 436.406 36.595 442.616 39.025C448.916 41.455 454.361 44.875 458.951 49.285C463.631 53.695 467.276 58.87 469.886 64.81C472.496 70.66 473.801 77.14 473.801 84.25C473.801 91.27 472.496 97.795 469.886 103.825C467.276 109.765 463.631 114.94 458.951 119.35C454.361 123.67 448.916 127.045 442.616 129.475C436.406 131.905 429.611 133.12 422.231 133.12ZM422.096 114.49C426.326 114.49 430.196 113.77 433.706 112.33C437.306 110.89 440.456 108.82 443.156 106.12C445.856 103.42 447.926 100.225 449.366 96.535C450.896 92.845 451.661 88.75 451.661 84.25C451.661 79.75 450.896 75.655 449.366 71.965C447.926 68.275 445.856 65.08 443.156 62.38C440.546 59.68 437.441 57.61 433.841 56.17C430.241 54.73 426.326 54.01 422.096 54.01C417.866 54.01 413.951 54.73 410.351 56.17C406.841 57.61 403.736 59.68 401.036 62.38C398.336 65.08 396.221 68.275 394.691 71.965C393.251 75.655 392.531 79.75 392.531 84.25C392.531 88.66 393.251 92.755 394.691 96.535C396.221 100.225 398.291 103.42 400.901 106.12C403.601 108.82 406.751 110.89 410.351 112.33C413.951 113.77 417.866 114.49 422.096 114.49ZM536.137 133.12C528.667 133.12 521.737 131.905 515.347 129.475C509.047 127.045 503.557 123.625 498.877 119.215C494.287 114.805 490.687 109.63 488.077 103.69C485.557 97.75 484.297 91.27 484.297 84.25C484.297 77.23 485.557 70.75 488.077 64.81C490.687 58.87 494.332 53.695 499.012 49.285C503.692 44.875 509.182 41.455 515.482 39.025C521.782 36.595 528.622 35.38 536.002 35.38C543.472 35.38 550.312 36.595 556.522 39.025C562.822 41.455 568.267 44.875 572.857 49.285C577.537 53.695 581.182 58.87 583.792 64.81C586.402 70.66 587.707 77.14 587.707 84.25C587.707 91.27 586.402 97.795 583.792 103.825C581.182 109.765 577.537 114.94 572.857 119.35C568.267 123.67 562.822 127.045 556.522 129.475C550.312 131.905 543.517 133.12 536.137 133.12ZM536.002 114.49C540.232 114.49 544.102 113.77 547.612 112.33C551.212 110.89 554.362 108.82 557.062 106.12C559.762 103.42 561.832 100.225 563.272 96.535C564.802 92.845 565.567 88.75 565.567 84.25C565.567 79.75 564.802 75.655 563.272 71.965C561.832 68.275 559.762 65.08 557.062 62.38C554.452 59.68 551.347 57.61 547.747 56.17C544.147 54.73 540.232 54.01 536.002 54.01C531.772 54.01 527.857 54.73 524.257 56.17C520.747 57.61 517.642 59.68 514.942 62.38C512.242 65.08 510.127 68.275 508.597 71.965C507.157 75.655 506.437 79.75 506.437 84.25C506.437 88.66 507.157 92.755 508.597 96.535C510.127 100.225 512.197 103.42 514.807 106.12C517.507 108.82 520.657 110.89 524.257 112.33C527.857 113.77 531.772 114.49 536.002 114.49ZM604.143 131.5V37H626.013V113.68H673.398V131.5H604.143Z" fill="#F06F38"/>
<path d="M91.52 130.15L91.2338 131.108L91.2453 131.112L91.52 130.15ZM74.78 122.185L73.8684 121.774L73.5425 122.497L74.1719 122.979L74.78 122.185ZM82.205 105.715L82.7845 104.9L81.7933 104.195L81.2934 105.304L82.205 105.715ZM96.515 112.87L96.1895 113.816L96.1987 113.819L96.208 113.822L96.515 112.87ZM123.785 114.355L124.081 115.31L124.091 115.307L124.101 115.304L123.785 114.355ZM129.725 110.71L128.953 110.074L129.725 110.71ZM128.645 99.505L128.034 100.296L128.045 100.305L128.057 100.314L128.645 99.505ZM120.815 95.86L120.523 96.8164L120.535 96.8201L120.547 96.8235L120.815 95.86ZM110.015 93.16L109.788 94.134L109.802 94.137L109.815 94.1397L110.015 93.16ZM98.27 89.92L97.9604 90.8709L97.9668 90.8729L98.27 89.92ZM87.605 85.06L87.0835 85.9133H87.0836L87.605 85.06ZM79.64 77.23L78.7867 77.7514L78.7919 77.76L78.7973 77.7684L79.64 77.23ZM80.99 50.095L80.1554 49.5441L80.1527 49.5482L80.99 50.095ZM94.22 39.43L94.6275 40.3432L94.6338 40.3404L94.22 39.43ZM134.045 37.54L133.802 38.5101L133.81 38.5119L133.817 38.5136L134.045 37.54ZM149.3 43.75L150.226 44.1266L150.541 43.352L149.835 42.9049L149.3 43.75ZM142.55 60.355L142.054 61.2232L143.046 61.7902L143.476 60.7316L142.55 60.355ZM129.32 54.82L129.045 55.7815L129.054 55.7841L129.064 55.7866L129.32 54.82ZM105.965 54.415L105.621 53.4761H105.621L105.965 54.415ZM100.16 58.33L100.954 58.9374L100.963 58.9266L100.971 58.9155L100.16 58.33ZM101.375 69.67L100.764 70.4613L100.775 70.4702L100.787 70.4787L101.375 69.67ZM109.205 73.18L108.937 74.1435L109.205 73.18ZM119.87 75.88L119.643 76.854L119.648 76.8551L119.87 75.88ZM131.615 78.985L131.326 79.9422L131.332 79.944L131.615 78.985ZM142.415 83.71L142.936 82.8567L142.415 83.71ZM150.245 91.54L149.392 92.0614L149.397 92.07L149.402 92.0784L150.245 91.54ZM148.895 118.405L149.724 118.964L148.895 118.405ZM135.53 129.07L135.116 128.16L135.111 128.162L135.53 129.07ZM113.255 132.12C105.783 132.12 98.6311 131.142 91.7947 129.188L91.2453 131.112C98.2689 133.118 105.607 134.12 113.255 134.12V132.12ZM91.8062 129.192C84.9537 127.145 79.494 124.536 75.3881 121.391L74.1719 122.979C78.526 126.314 84.2263 129.015 91.2338 131.108L91.8062 129.192ZM75.6916 122.596L83.1166 106.126L81.2934 105.304L73.8684 121.774L75.6916 122.596ZM81.6255 106.53C85.7653 109.474 90.6238 111.899 96.1895 113.816L96.8405 111.924C91.4262 110.061 86.7447 107.716 82.7845 104.9L81.6255 106.53ZM96.208 113.822C101.884 115.653 107.612 116.57 113.39 116.57V114.57C107.828 114.57 102.306 113.687 96.822 111.918L96.208 113.822ZM113.39 116.57C117.759 116.57 121.336 116.162 124.081 115.31L123.489 113.4C121.014 114.168 117.661 114.57 113.39 114.57V116.57ZM124.101 115.304C126.906 114.369 129.076 113.071 130.497 111.346L128.953 110.074C127.854 111.409 126.064 112.541 123.469 113.406L124.101 115.304ZM130.497 111.346C131.904 109.637 132.615 107.657 132.615 105.445H130.615C130.615 107.193 130.066 108.723 128.953 110.074L130.497 111.346ZM132.615 105.445C132.615 102.616 131.481 100.331 129.233 98.6963L128.057 100.314C129.769 101.559 130.615 103.234 130.615 105.445H132.615ZM129.256 98.7137C127.145 97.0825 124.407 95.8199 121.083 94.8965L120.547 96.8235C123.703 97.7001 126.185 98.8675 128.034 100.296L129.256 98.7137ZM121.107 94.9036C117.832 93.9029 114.201 92.9955 110.215 92.1803L109.815 94.1397C113.749 94.9445 117.318 95.8371 120.523 96.8164L121.107 94.9036ZM110.242 92.186C106.398 91.2923 102.509 90.2194 98.5732 88.9671L97.9668 90.8729C101.951 92.1406 105.892 93.2277 109.788 94.134L110.242 92.186ZM98.5796 88.9691C94.7785 87.7316 91.2953 86.1432 88.1264 84.2067L87.0836 85.9133C90.3947 87.9368 94.0215 89.5884 97.9604 90.8709L98.5796 88.9691ZM88.1265 84.2067C85.0177 82.3069 82.472 79.8053 80.4827 76.6916L78.7973 77.7684C80.948 81.1347 83.7123 83.8531 87.0835 85.9133L88.1265 84.2067ZM80.4933 76.7085C78.6358 73.669 77.67 69.7246 77.67 64.81H75.67C75.67 69.9754 76.6842 74.311 78.7867 77.7514L80.4933 76.7085ZM77.67 64.81C77.67 59.599 79.0563 54.8849 81.8273 50.6418L80.1527 49.5482C77.1637 54.1251 75.67 59.221 75.67 64.81H77.67ZM81.8246 50.6458C84.6713 46.3327 88.9183 42.8904 94.6274 40.3432L93.8126 38.5168C87.8217 41.1896 83.2487 44.8573 80.1554 49.5442L81.8246 50.6458ZM94.6338 40.3404C100.406 37.7169 107.679 36.38 116.495 36.38V34.38C107.491 34.38 99.9145 35.7431 93.8062 38.5196L94.6338 40.3404ZM116.495 36.38C122.353 36.38 128.122 37.09 133.802 38.5101L134.288 36.5699C128.448 35.11 122.517 34.38 116.495 34.38V36.38ZM133.817 38.5136C139.483 39.8415 144.461 41.8721 148.765 44.5951L149.835 42.9049C145.319 40.0479 140.127 37.9385 134.273 36.5664L133.817 38.5136ZM148.374 43.3734L141.624 59.9784L143.476 60.7316L150.226 44.1266L148.374 43.3734ZM143.046 59.4868C138.569 56.9285 134.079 55.048 129.576 53.8534L129.064 55.7866C133.381 56.932 137.711 58.7415 142.054 61.2232L143.046 59.4868ZM129.595 53.8585C125.103 52.5751 120.69 51.93 116.36 51.93V53.93C120.49 53.93 124.717 54.5449 129.045 55.7815L129.595 53.8585ZM116.36 51.93C112.063 51.93 108.47 52.4314 105.621 53.4761L106.309 55.3539C108.86 54.4186 112.197 53.93 116.36 53.93V51.93ZM105.621 53.4761C102.812 54.506 100.677 55.9063 99.3493 57.7445L100.971 58.9155C101.983 57.5137 103.718 56.304 106.309 55.3539L105.621 53.4761ZM99.3656 57.7225C98.052 59.4403 97.405 61.4579 97.405 63.73H99.405C99.405 61.8621 99.928 60.2796 100.954 58.9374L99.3656 57.7225ZM97.405 63.73C97.405 66.4803 98.547 68.7485 100.764 70.4613L101.986 68.8787C100.243 67.5315 99.405 65.8397 99.405 63.73H97.405ZM100.787 70.4787C102.892 72.01 105.622 73.2226 108.937 74.1435L109.473 72.2165C106.308 71.3374 103.818 70.21 101.963 68.8613L100.787 70.4787ZM108.937 74.1435C112.193 75.0479 115.762 75.9514 119.643 76.854L120.097 74.906C116.238 74.0086 112.697 73.1121 109.473 72.2165L108.937 74.1435ZM119.648 76.8551C123.586 77.75 127.478 78.779 131.326 79.9422L131.904 78.0278C128.012 76.851 124.074 75.81 120.092 74.9049L119.648 76.8551ZM131.332 79.944C135.215 81.0914 138.734 82.6325 141.894 84.5633L142.936 82.8567C139.616 80.8275 135.935 79.2186 131.898 78.026L131.332 79.944ZM141.894 84.5633C144.998 86.4606 147.494 88.9568 149.392 92.0614L151.098 91.0185C149.036 87.6432 146.312 84.9194 142.936 82.8567L141.894 84.5633ZM149.402 92.0784C151.344 95.1174 152.35 99.0116 152.35 103.825H154.35C154.35 98.7384 153.286 94.4426 151.088 91.0016L149.402 92.0784ZM152.35 103.825C152.35 108.936 150.925 113.601 148.066 117.846L149.724 118.964C152.805 114.389 154.35 109.334 154.35 103.825H152.35ZM148.066 117.846C145.22 122.071 140.926 125.519 135.116 128.16L135.944 129.98C142.014 127.221 146.63 123.559 149.724 118.964L148.066 117.846ZM135.111 128.162C129.434 130.782 122.164 132.12 113.255 132.12V134.12C122.346 134.12 129.926 132.758 135.949 129.978L135.111 128.162ZM193.134 129.61L192.769 130.541L192.778 130.544L192.786 130.547L193.134 129.61ZM176.934 119.35L176.241 120.071L176.934 119.35ZM166.134 103.825L165.213 104.216L165.218 104.227L166.134 103.825ZM166.134 64.675L165.218 64.2727L165.213 64.2844L166.134 64.675ZM176.934 49.15L176.248 48.4222L176.241 48.4289L176.934 49.15ZM193.269 39.025L193.622 39.9608L193.633 39.9562L193.269 39.025ZM235.794 39.7L235.392 40.6159L235.4 40.6192L235.407 40.6223L235.794 39.7ZM252.534 52.12L253.212 52.8548L253.905 52.2153L253.307 51.4861L252.534 52.12ZM238.494 65.08L237.742 65.7398L238.419 66.5102L239.172 65.8148L238.494 65.08ZM227.694 56.845L227.263 57.7475L227.272 57.7515L227.28 57.7554L227.694 56.845ZM192.999 62.38L193.706 63.0871H193.706L192.999 62.38ZM186.654 71.965L185.73 71.582L185.726 71.5917L185.722 71.6015L186.654 71.965ZM186.654 96.535L185.722 96.8985L185.726 96.9083L185.73 96.918L186.654 96.535ZM192.999 106.12L192.292 106.827L192.999 106.12ZM227.694 111.79L228.108 112.7L228.116 112.697L228.125 112.692L227.694 111.79ZM238.494 103.285L239.172 102.55L238.41 101.846L237.735 102.634L238.494 103.285ZM252.534 116.245L253.307 116.879L253.905 116.15L253.212 115.51L252.534 116.245ZM235.794 128.8L235.397 127.882L235.392 127.884L235.794 128.8ZM213.519 132.12C206.338 132.12 199.662 130.968 193.482 128.673L192.786 130.547C199.206 132.932 206.12 134.12 213.519 134.12V132.12ZM193.498 128.679C187.405 126.294 182.118 122.944 177.627 118.629L176.241 120.071C180.93 124.576 186.443 128.066 192.769 130.541L193.498 128.679ZM177.627 118.629C173.133 114.311 169.608 109.245 167.049 103.423L165.218 104.227C167.88 110.285 171.555 115.569 176.241 120.071L177.627 118.629ZM167.054 103.434C164.592 97.63 163.354 91.2395 163.354 84.25H161.354C161.354 91.4805 162.636 98.14 165.213 104.216L167.054 103.434ZM163.354 84.25C163.354 77.2605 164.592 70.87 167.054 65.0655L165.213 64.2844C162.636 70.36 161.354 77.0195 161.354 84.25H163.354ZM167.049 65.0773C169.608 59.2547 173.133 54.1886 177.627 49.8711L176.241 48.4289C171.555 52.9313 167.88 58.2153 165.218 64.2727L167.049 65.0773ZM177.62 49.8778C182.2 45.5614 187.531 42.2557 193.621 39.9608L192.916 38.0892C186.587 40.4743 181.027 43.9186 176.248 48.4222L177.62 49.8778ZM193.633 39.9562C199.715 37.5763 206.385 36.38 213.654 36.38V34.38C206.162 34.38 199.242 35.6137 192.904 38.0938L193.633 39.9562ZM213.654 36.38C221.725 36.38 228.966 37.7987 235.392 40.6159L236.195 38.7841C229.482 35.8413 221.963 34.38 213.654 34.38V36.38ZM235.407 40.6223C241.92 43.3504 247.366 47.3925 251.76 52.7539L253.307 51.4861C248.702 45.8675 242.988 41.6296 236.18 38.7777L235.407 40.6223ZM251.856 51.3852L237.816 64.3452L239.172 65.8148L253.212 52.8548L251.856 51.3852ZM239.245 64.4202C235.924 60.6374 232.212 57.8004 228.108 55.9346L227.28 57.7554C231.095 59.4896 234.584 62.1426 237.742 65.7398L239.245 64.4202ZM228.125 55.9425C224.021 53.9841 219.553 53.01 214.734 53.01V55.01C219.275 55.01 223.447 55.9259 227.263 57.7475L228.125 55.9425ZM214.734 53.01C210.214 53.01 206.039 53.7484 202.22 55.2384L202.947 57.1016C206.509 55.7116 210.434 55.01 214.734 55.01V53.01ZM202.22 55.2384C198.406 56.7268 195.093 58.8714 192.292 61.6729L193.706 63.0871C196.305 60.4885 199.381 58.4932 202.947 57.1016L202.22 55.2384ZM192.292 61.6729C189.495 64.4699 187.308 67.7765 185.73 71.582L187.578 72.348C189.06 68.7735 191.103 65.6901 193.706 63.0871L192.292 61.6729ZM185.722 71.6015C184.231 75.422 183.494 79.6424 183.494 84.25H185.494C185.494 79.8576 186.196 75.888 187.585 72.3285L185.722 71.6015ZM183.494 84.25C183.494 88.8576 184.231 93.078 185.722 96.8985L187.585 96.1715C186.196 92.612 185.494 88.6424 185.494 84.25H183.494ZM185.73 96.918C187.308 100.724 189.495 104.03 192.292 106.827L193.706 105.413C191.103 102.81 189.06 99.7265 187.578 96.152L185.73 96.918ZM192.292 106.827C195.093 109.629 198.406 111.773 202.22 113.262L202.947 111.398C199.381 110.007 196.305 108.011 193.706 105.413L192.292 106.827ZM202.22 113.262C206.039 114.752 210.214 115.49 214.734 115.49V113.49C210.434 113.49 206.509 112.788 202.947 111.398L202.22 113.262ZM214.734 115.49C219.546 115.49 224.008 114.564 228.108 112.7L227.28 110.88C223.46 112.616 219.282 113.49 214.734 113.49V115.49ZM228.125 112.692C232.226 110.735 235.935 107.807 239.253 103.936L237.735 102.634C234.573 106.323 231.081 109.065 227.263 110.888L228.125 112.692ZM237.816 104.02L251.856 116.98L253.212 115.51L239.172 102.55L237.816 104.02ZM251.76 115.611C247.364 120.975 241.914 125.064 235.397 127.882L236.191 129.718C242.994 126.776 248.704 122.495 253.307 116.879L251.76 115.611ZM235.392 127.884C228.967 130.701 221.682 132.12 213.519 132.12V134.12C221.916 134.12 229.481 132.659 236.195 129.716L235.392 127.884ZM332.103 37V36H331.103V37H332.103ZM353.973 37H354.973V36H353.973V37ZM353.973 131.5V132.5H354.973V131.5H353.973ZM332.103 131.5H331.103V132.5H332.103V131.5ZM289.173 131.5V132.5H290.173V131.5H289.173ZM267.303 131.5H266.303V132.5H267.303V131.5ZM267.303 37V36H266.303V37H267.303ZM289.173 37H290.173V36H289.173V37ZM333.723 92.755V93.755H334.723V92.755H333.723ZM287.553 92.755H286.553V93.755H287.553V92.755ZM287.553 74.26V73.26H286.553V74.26H287.553ZM333.723 74.26H334.723V73.26H333.723V74.26ZM332.103 38H353.973V36H332.103V38ZM352.973 37V131.5H354.973V37H352.973ZM353.973 130.5H332.103V132.5H353.973V130.5ZM333.103 131.5V37H331.103V131.5H333.103ZM289.173 130.5H267.303V132.5H289.173V130.5ZM268.303 131.5V37H266.303V131.5H268.303ZM267.303 38H289.173V36H267.303V38ZM288.173 37V131.5H290.173V37H288.173ZM333.723 91.755H287.553V93.755H333.723V91.755ZM288.553 92.755V74.26H286.553V92.755H288.553ZM287.553 75.26H333.723V73.26H287.553V75.26ZM332.723 74.26V92.755H334.723V74.26H332.723ZM401.441 129.475L401.081 130.408L401.086 130.41L401.441 129.475ZM384.971 119.215L384.278 119.936L384.285 119.943L384.971 119.215ZM374.171 103.69L373.25 104.081L373.255 104.092L374.171 103.69ZM374.171 64.81L373.255 64.4077L373.25 64.4194L374.171 64.81ZM401.576 39.025L401.216 38.092L401.576 39.025ZM442.616 39.025L442.252 39.9562L442.256 39.958L442.616 39.025ZM458.951 49.285L458.258 50.0061L458.265 50.0128L458.951 49.285ZM469.886 64.81L468.97 65.2123L468.973 65.2174L469.886 64.81ZM469.886 103.825L470.802 104.227L470.804 104.222L469.886 103.825ZM458.951 119.35L459.636 120.078L459.637 120.078L458.951 119.35ZM442.616 129.475L442.256 128.542L442.252 128.544L442.616 129.475ZM433.706 112.33L433.335 111.401L433.326 111.405L433.706 112.33ZM443.156 106.12L442.449 105.413L443.156 106.12ZM449.366 96.535L448.442 96.152L448.438 96.1617L448.434 96.1715L449.366 96.535ZM449.366 71.965L448.434 72.3285L448.438 72.3383L448.442 72.348L449.366 71.965ZM443.156 62.38L442.437 63.075L442.443 63.0811L442.449 63.0871L443.156 62.38ZM433.841 56.17L433.47 57.0985L433.841 56.17ZM410.351 56.17L409.98 55.2415L409.971 55.2448L410.351 56.17ZM401.036 62.38L401.743 63.0871L401.036 62.38ZM394.691 71.965L393.767 71.582L393.763 71.5917L393.759 71.6015L394.691 71.965ZM394.691 96.535L393.757 96.891L393.762 96.9046L393.767 96.918L394.691 96.535ZM400.901 106.12L400.182 106.815L400.188 106.821L400.194 106.827L400.901 106.12ZM410.351 112.33L409.98 113.258L410.351 112.33ZM422.231 132.12C414.871 132.12 408.063 130.923 401.796 128.54L401.086 130.41C407.599 132.887 414.651 134.12 422.231 134.12V132.12ZM401.801 128.542C395.616 126.156 390.238 122.804 385.657 118.487L384.285 119.943C389.064 124.446 394.666 127.934 401.081 130.408L401.801 128.542ZM385.664 118.494C381.17 114.176 377.645 109.11 375.086 103.288L373.255 104.092C375.917 110.15 379.592 115.434 384.278 119.936L385.664 118.494ZM375.092 103.299C372.628 97.4935 371.391 91.1477 371.391 84.25H369.391C369.391 91.3923 370.674 98.0065 373.25 104.081L375.092 103.299ZM371.391 84.25C371.391 77.3523 372.628 71.0065 375.092 65.2005L373.25 64.4194C370.674 70.4935 369.391 77.1077 369.391 84.25H371.391ZM375.086 65.2123C377.643 59.394 381.21 54.3299 385.792 50.0128L384.42 48.5572C379.642 53.0601 375.919 58.346 373.255 64.4077L375.086 65.2123ZM385.792 50.0128C390.373 45.6961 395.751 42.3437 401.936 39.958L401.216 38.092C394.801 40.5663 389.199 44.0539 384.42 48.5572L385.792 50.0128ZM401.936 39.958C408.111 37.5762 414.828 36.38 422.096 36.38V34.38C414.604 34.38 407.641 35.6138 401.216 38.092L401.936 39.958ZM422.096 36.38C429.456 36.38 436.171 37.5768 442.252 39.9562L442.98 38.0938C436.641 35.6132 429.676 34.38 422.096 34.38V36.38ZM442.256 39.958C448.44 42.3431 453.77 45.6937 458.258 50.0061L459.644 48.5639C454.952 44.0563 449.392 40.5669 442.976 38.092L442.256 39.958ZM458.265 50.0128C462.847 54.3299 466.414 59.394 468.97 65.2123L470.802 64.4077C468.138 58.346 464.415 53.0601 459.637 48.5572L458.265 50.0128ZM468.973 65.2174C471.52 70.9258 472.801 77.2649 472.801 84.25H474.801C474.801 77.0151 473.472 70.3942 470.799 64.4026L468.973 65.2174ZM472.801 84.25C472.801 91.1428 471.52 97.5316 468.968 103.428L470.804 104.222C473.472 98.0584 474.801 91.3972 474.801 84.25H472.801ZM468.97 103.423C466.414 109.241 462.847 114.305 458.265 118.622L459.637 120.078C464.415 115.575 468.138 110.289 470.802 104.227L468.97 103.423ZM458.266 118.622C453.776 122.847 448.444 126.155 442.256 128.542L442.976 130.408C449.388 127.935 454.946 124.493 459.636 120.078L458.266 118.622ZM442.252 128.544C436.169 130.924 429.5 132.12 422.231 132.12V134.12C429.722 134.12 436.642 132.886 442.98 130.406L442.252 128.544ZM422.096 115.49C426.441 115.49 430.442 114.75 434.086 113.255L433.326 111.405C429.95 112.79 426.211 113.49 422.096 113.49V115.49ZM434.077 113.258C437.801 111.769 441.066 109.624 443.863 106.827L442.449 105.413C439.846 108.016 436.811 110.011 433.335 111.402L434.077 113.258ZM443.863 106.827C446.665 104.026 448.809 100.712 450.298 96.8985L448.434 96.1715C447.043 99.7376 445.047 102.814 442.449 105.413L443.863 106.827ZM450.29 96.918C451.876 93.0922 452.661 88.8649 452.661 84.25H450.661C450.661 88.6351 449.916 92.5978 448.442 96.152L450.29 96.918ZM452.661 84.25C452.661 79.6351 451.876 75.4078 450.29 71.582L448.442 72.348C449.916 75.9022 450.661 79.8649 450.661 84.25H452.661ZM450.298 71.6015C448.809 67.7876 446.665 64.4743 443.863 61.6729L442.449 63.0871C445.047 65.6857 447.043 68.7624 448.434 72.3285L450.298 71.6015ZM443.875 61.685C441.164 58.8802 437.939 56.7322 434.212 55.2415L433.47 57.0985C436.943 58.4878 439.928 60.4798 442.437 63.075L443.875 61.685ZM434.212 55.2415C430.484 53.7501 426.442 53.01 422.096 53.01V55.01C426.21 55.01 429.998 55.7099 433.47 57.0985L434.212 55.2415ZM422.096 53.01C417.75 53.01 413.708 53.7501 409.98 55.2415L410.722 57.0985C414.194 55.7099 417.982 55.01 422.096 55.01V53.01ZM409.971 55.2448C406.338 56.7354 403.122 58.8798 400.329 61.6729L401.743 63.0871C404.35 60.4801 407.344 58.4846 410.731 57.0952L409.971 55.2448ZM400.329 61.6729C397.532 64.4699 395.345 67.7765 393.767 71.582L395.615 72.348C397.097 68.7735 399.14 65.6901 401.743 63.0871L400.329 61.6729ZM393.759 71.6015C392.268 75.422 391.531 79.6424 391.531 84.25H393.531C393.531 79.8576 394.233 75.888 395.623 72.3285L393.759 71.6015ZM391.531 84.25C391.531 88.7707 392.269 92.9874 393.757 96.891L395.625 96.179C394.233 92.5225 393.531 88.5493 393.531 84.25H391.531ZM393.767 96.918C395.342 100.716 397.479 104.019 400.182 106.815L401.62 105.425C399.103 102.821 397.1 99.7335 395.615 96.152L393.767 96.918ZM400.194 106.827C402.991 109.624 406.256 111.769 409.98 113.258L410.722 111.402C407.246 110.011 404.211 108.016 401.608 105.413L400.194 106.827ZM409.98 113.258C413.708 114.75 417.75 115.49 422.096 115.49V113.49C417.982 113.49 414.194 112.79 410.722 111.402L409.98 113.258ZM515.347 129.475L514.987 130.408L514.992 130.41L515.347 129.475ZM498.877 119.215L498.184 119.936L498.191 119.943L498.877 119.215ZM488.077 103.69L487.157 104.081L487.162 104.092L488.077 103.69ZM488.077 64.81L487.162 64.4077L487.157 64.4194L488.077 64.81ZM515.482 39.025L515.122 38.092L515.482 39.025ZM556.522 39.025L556.158 39.9562L556.162 39.958L556.522 39.025ZM572.857 49.285L572.164 50.0061L572.171 50.0128L572.857 49.285ZM583.792 64.81L582.877 65.2123L582.879 65.2174L583.792 64.81ZM583.792 103.825L584.708 104.227L584.71 104.222L583.792 103.825ZM572.857 119.35L573.543 120.078L573.543 120.078L572.857 119.35ZM556.522 129.475L556.162 128.542L556.158 128.544L556.522 129.475ZM547.612 112.33L547.241 111.401L547.233 111.405L547.612 112.33ZM557.062 106.12L556.355 105.413L557.062 106.12ZM563.272 96.535L562.348 96.152L562.344 96.1617L562.341 96.1715L563.272 96.535ZM563.272 71.965L562.341 72.3285L562.344 72.3383L562.348 72.348L563.272 71.965ZM557.062 62.38L556.343 63.075L556.349 63.0811L556.355 63.0871L557.062 62.38ZM547.747 56.17L547.376 57.0985L547.747 56.17ZM524.257 56.17L523.886 55.2415L523.878 55.2448L524.257 56.17ZM514.942 62.38L515.649 63.0871L514.942 62.38ZM508.597 71.965L507.673 71.582L507.669 71.5917L507.666 71.6015L508.597 71.965ZM508.597 96.535L507.663 96.891L507.668 96.9046L507.673 96.918L508.597 96.535ZM514.807 106.12L514.088 106.815L514.094 106.821L514.1 106.827L514.807 106.12ZM524.257 112.33L523.886 113.258L524.257 112.33ZM536.137 132.12C528.777 132.12 521.969 130.923 515.703 128.54L514.992 130.41C521.505 132.887 528.557 134.12 536.137 134.12V132.12ZM515.707 128.542C509.522 126.156 504.144 122.804 499.563 118.487L498.191 119.943C502.97 124.446 508.573 127.934 514.987 130.408L515.707 128.542ZM499.57 118.494C495.076 114.176 491.551 109.11 488.993 103.288L487.162 104.092C489.823 110.15 493.498 115.434 498.184 119.936L499.57 118.494ZM488.998 103.299C486.535 97.4935 485.297 91.1477 485.297 84.25H483.297C483.297 91.3923 484.58 98.0065 487.157 104.081L488.998 103.299ZM485.297 84.25C485.297 77.3523 486.535 71.0065 488.998 65.2005L487.157 64.4194C484.58 70.4935 483.297 77.1077 483.297 84.25H485.297ZM488.993 65.2123C491.549 59.394 495.117 54.3299 499.698 50.0128L498.326 48.5572C493.548 53.0601 489.825 58.346 487.162 64.4077L488.993 65.2123ZM499.698 50.0128C504.279 45.6961 509.657 42.3437 515.842 39.958L515.122 38.092C508.708 40.5663 503.105 44.0539 498.326 48.5572L499.698 50.0128ZM515.842 39.958C522.017 37.5762 528.734 36.38 536.002 36.38V34.38C528.511 34.38 521.547 35.6138 515.122 38.092L515.842 39.958ZM536.002 36.38C543.362 36.38 550.077 37.5768 556.158 39.9562L556.887 38.0938C550.547 35.6132 543.582 34.38 536.002 34.38V36.38ZM556.162 39.958C562.346 42.3431 567.676 45.6937 572.164 50.0061L573.55 48.5639C568.859 44.0563 563.298 40.5669 556.882 38.092L556.162 39.958ZM572.171 50.0128C576.753 54.3299 580.32 59.394 582.877 65.2123L584.708 64.4077C582.044 58.346 578.322 53.0601 573.543 48.5572L572.171 50.0128ZM582.879 65.2174C585.426 70.9258 586.707 77.2649 586.707 84.25H588.707C588.707 77.0151 587.379 70.3942 584.705 64.4026L582.879 65.2174ZM586.707 84.25C586.707 91.1428 585.427 97.5316 582.875 103.428L584.71 104.222C587.378 98.0584 588.707 91.3972 588.707 84.25H586.707ZM582.877 103.423C580.32 109.241 576.753 114.305 572.171 118.622L573.543 120.078C578.322 115.575 582.044 110.289 584.708 104.227L582.877 103.423ZM572.172 118.622C567.683 122.847 562.35 126.155 556.162 128.542L556.882 130.408C563.294 127.935 568.852 124.493 573.543 120.078L572.172 118.622ZM556.158 128.544C550.076 130.924 543.406 132.12 536.137 132.12V134.12C543.629 134.12 550.549 132.886 556.887 130.406L556.158 128.544ZM536.002 115.49C540.347 115.49 544.348 114.75 547.992 113.255L547.233 111.405C543.856 112.79 540.117 113.49 536.002 113.49V115.49ZM547.984 113.258C551.707 111.769 554.972 109.624 557.769 106.827L556.355 105.413C553.752 108.016 550.717 110.011 547.241 111.402L547.984 113.258ZM557.769 106.827C560.571 104.026 562.715 100.712 564.204 96.8985L562.341 96.1715C560.949 99.7376 558.954 102.814 556.355 105.413L557.769 106.827ZM564.196 96.918C565.782 93.0922 566.567 88.8649 566.567 84.25H564.567C564.567 88.6351 563.822 92.5978 562.348 96.152L564.196 96.918ZM566.567 84.25C566.567 79.6351 565.782 75.4078 564.196 71.582L562.348 72.348C563.822 75.9022 564.567 79.8649 564.567 84.25H566.567ZM564.204 71.6015C562.715 67.7876 560.571 64.4743 557.769 61.6729L556.355 63.0871C558.954 65.6857 560.949 68.7624 562.341 72.3285L564.204 71.6015ZM557.781 61.685C555.07 58.8802 551.845 56.7322 548.119 55.2415L547.376 57.0985C550.849 58.4878 553.835 60.4798 556.343 63.075L557.781 61.685ZM548.119 55.2415C544.39 53.7501 540.348 53.01 536.002 53.01V55.01C540.117 55.01 543.904 55.7099 547.376 57.0985L548.119 55.2415ZM536.002 53.01C531.657 53.01 527.614 53.7501 523.886 55.2415L524.629 57.0985C528.1 55.7099 531.888 55.01 536.002 55.01V53.01ZM523.878 55.2448C520.244 56.7354 517.028 58.8798 514.235 61.6729L515.649 63.0871C518.256 60.4801 521.25 58.4846 524.637 57.0952L523.878 55.2448ZM514.235 61.6729C511.438 64.4699 509.251 67.7765 507.673 71.582L509.521 72.348C511.003 68.7735 513.046 65.6901 515.649 63.0871L514.235 61.6729ZM507.666 71.6015C506.175 75.422 505.437 79.6424 505.437 84.25H507.437C507.437 79.8576 508.14 75.888 509.529 72.3285L507.666 71.6015ZM505.437 84.25C505.437 88.7707 506.176 92.9874 507.663 96.891L509.532 96.179C508.139 92.5225 507.437 88.5493 507.437 84.25H505.437ZM507.673 96.918C509.248 100.716 511.386 104.019 514.088 106.815L515.526 105.425C513.009 102.821 511.006 99.7335 509.521 96.152L507.673 96.918ZM514.1 106.827C516.897 109.624 520.162 111.769 523.886 113.258L524.629 111.402C521.152 110.011 518.117 108.016 515.514 105.413L514.1 106.827ZM523.886 113.258C527.614 114.75 531.657 115.49 536.002 115.49V113.49C531.888 113.49 528.1 112.79 524.629 111.402L523.886 113.258ZM604.143 131.5H603.143V132.5H604.143V131.5ZM604.143 37V36H603.143V37H604.143ZM626.013 37H627.013V36H626.013V37ZM626.013 113.68H625.013V114.68H626.013V113.68ZM673.398 113.68H674.398V112.68H673.398V113.68ZM673.398 131.5V132.5H674.398V131.5H673.398ZM605.143 131.5V37H603.143V131.5H605.143ZM604.143 38H626.013V36H604.143V38ZM625.013 37V113.68H627.013V37H625.013ZM626.013 114.68H673.398V112.68H626.013V114.68ZM672.398 113.68V131.5H674.398V113.68H672.398ZM673.398 130.5H604.143V132.5H673.398V130.5Z" fill="#F9F9F9"/>
<path d="M60.496 122.396C60.496 126.323 59.504 129.381 57.52 131.572C55.4947 133.763 52.498 134.858 48.53 134.858H19.266V125.186H48.406C49.8113 125.186 50.9067 124.814 51.692 124.07C52.436 123.326 52.808 122.313 52.808 121.032C52.808 119.503 52.3947 118.201 51.568 117.126L58.388 114.522C59.0907 115.514 59.628 116.713 60 118.118C60.3307 119.482 60.496 120.908 60.496 122.396ZM34.828 140.004H27.388V116.878H34.828V140.004ZM26.148 88.8186C26.148 86.1733 26.6853 83.8173 27.76 81.7506C28.7933 79.6426 30.4053 77.9893 32.596 76.7906C34.7453 75.592 37.5147 74.9926 40.904 74.9926H60L60 84.6646H42.392C39.7053 84.6646 37.7213 85.264 36.44 86.4626C35.1587 87.62 34.518 89.2733 34.518 91.4226C34.518 92.952 34.8487 94.3366 35.51 95.5766C36.13 96.7753 37.1013 97.726 38.424 98.4286C39.7467 99.09 41.4413 99.4206 43.508 99.4206H60V109.093H13.996V99.4206H35.882L33.092 101.591C30.86 100.392 29.1447 98.6766 27.946 96.4446C26.7473 94.2126 26.148 91.6706 26.148 88.8186ZM60.496 49.4293C60.496 53.2319 59.752 56.5799 58.264 59.4733C56.776 62.3253 54.7507 64.5366 52.188 66.1073C49.584 67.6779 46.6287 68.4633 43.322 68.4633C39.974 68.4633 37.0187 67.6986 34.456 66.1693C31.852 64.5986 29.8267 62.4699 28.38 59.7833C26.892 57.0966 26.148 54.0586 26.148 50.6693C26.148 47.4039 26.8507 44.4693 28.256 41.8653C29.62 39.2199 31.604 37.1326 34.208 35.6033C36.7707 34.0739 39.85 33.3093 43.446 33.3093C43.818 33.3093 44.252 33.3299 44.748 33.3713C45.2027 33.4126 45.6367 33.4539 46.05 33.4953V60.5893H40.408V38.5793L42.082 42.2993C40.346 42.2993 38.8373 42.6506 37.556 43.3533C36.2747 44.0559 35.2827 45.0273 34.58 46.2673C33.836 47.5073 33.464 48.9539 33.464 50.6073C33.464 52.2606 33.836 53.7279 34.58 55.0093C35.2827 56.2493 36.2953 57.2206 37.618 57.9233C38.8993 58.6259 40.4287 58.9773 42.206 58.9773H43.694C45.5127 58.9773 47.1247 58.5846 48.53 57.7993C49.894 56.9726 50.948 55.8359 51.692 54.3893C52.3947 52.9013 52.746 51.1653 52.746 49.1813C52.746 47.4039 52.4773 45.8539 51.94 44.5313C51.4027 43.1673 50.5967 41.9273 49.522 40.8113L55.102 35.6653C56.838 37.1946 58.1813 39.1166 59.132 41.4313C60.0413 43.7459 60.496 46.4119 60.496 49.4293Z" fill="#F06F38"/>
</svg>
