<svg width="542" height="171" viewBox="0 0 542 171" fill="none" xmlns="http://www.w3.org/2000/svg">
<path d="M108.255 138.12C100.695 138.12 93.45 137.13 86.52 135.15C79.59 133.08 74.01 130.425 69.78 127.185L77.205 110.715C81.255 113.595 86.025 115.98 91.515 117.87C97.095 119.67 102.72 120.57 108.39 120.57C112.71 120.57 116.175 120.165 118.785 119.355C121.485 118.455 123.465 117.24 124.725 115.71C125.985 114.18 126.615 112.425 126.615 110.445C126.615 107.925 125.625 105.945 123.645 104.505C121.665 102.975 119.055 101.76 115.815 100.86C112.575 99.87 108.975 98.97 105.015 98.16C101.145 97.26 97.23 96.18 93.27 94.92C89.4 93.66 85.845 92.04 82.605 90.06C79.365 88.08 76.71 85.47 74.64 82.23C72.66 78.99 71.67 74.85 71.67 69.81C71.67 64.41 73.11 59.505 75.99 55.095C78.96 50.595 83.37 47.04 89.22 44.43C95.16 41.73 102.585 40.38 111.495 40.38C117.435 40.38 123.285 41.1 129.045 42.54C134.805 43.89 139.89 45.96 144.3 48.75L137.55 65.355C133.14 62.835 128.73 60.99 124.32 59.82C119.91 58.56 115.59 57.93 111.36 57.93C107.13 57.93 103.665 58.425 100.965 59.415C98.265 60.405 96.33 61.71 95.16 63.33C93.99 64.86 93.405 66.66 93.405 68.73C93.405 71.16 94.395 73.14 96.375 74.67C98.355 76.11 100.965 77.28 104.205 78.18C107.445 79.08 111 79.98 114.87 80.88C118.83 81.78 122.745 82.815 126.615 83.985C130.575 85.155 134.175 86.73 137.415 88.71C140.655 90.69 143.265 93.3 145.245 96.54C147.315 99.78 148.35 103.875 148.35 108.825C148.35 114.135 146.865 118.995 143.895 123.405C140.925 127.815 136.47 131.37 130.53 134.07C124.68 136.77 117.255 138.12 108.255 138.12ZM181.551 136.5V59.82H151.311V42H233.661V59.82H203.421V136.5H181.551ZM290.009 138.12C282.539 138.12 275.609 136.905 269.219 134.475C262.919 132.045 257.429 128.625 252.749 124.215C248.159 119.805 244.559 114.63 241.949 108.69C239.429 102.75 238.169 96.27 238.169 89.25C238.169 82.23 239.429 75.75 241.949 69.81C244.559 63.87 248.204 58.695 252.884 54.285C257.564 49.875 263.054 46.455 269.354 44.025C275.654 41.595 282.494 40.38 289.874 40.38C297.344 40.38 304.184 41.595 310.394 44.025C316.694 46.455 322.139 49.875 326.729 54.285C331.409 58.695 335.054 63.87 337.664 69.81C340.274 75.66 341.579 82.14 341.579 89.25C341.579 96.27 340.274 102.795 337.664 108.825C335.054 114.765 331.409 119.94 326.729 124.35C322.139 128.67 316.694 132.045 310.394 134.475C304.184 136.905 297.389 138.12 290.009 138.12ZM289.874 119.49C294.104 119.49 297.974 118.77 301.484 117.33C305.084 115.89 308.234 113.82 310.934 111.12C313.634 108.42 315.704 105.225 317.144 101.535C318.674 97.845 319.439 93.75 319.439 89.25C319.439 84.75 318.674 80.655 317.144 76.965C315.704 73.275 313.634 70.08 310.934 67.38C308.324 64.68 305.219 62.61 301.619 61.17C298.019 59.73 294.104 59.01 289.874 59.01C285.644 59.01 281.729 59.73 278.129 61.17C274.619 62.61 271.514 64.68 268.814 67.38C266.114 70.08 263.999 73.275 262.469 76.965C261.029 80.655 260.309 84.75 260.309 89.25C260.309 93.66 261.029 97.755 262.469 101.535C263.999 105.225 266.069 108.42 268.679 111.12C271.379 113.82 274.529 115.89 278.129 117.33C281.729 118.77 285.644 119.49 289.874 119.49ZM358.016 136.5V42H398.921C407.381 42 414.671 43.395 420.791 46.185C426.911 48.885 431.636 52.8 434.966 57.93C438.296 63.06 439.961 69.18 439.961 76.29C439.961 83.31 438.296 89.385 434.966 94.515C431.636 99.555 426.911 103.425 420.791 106.125C414.671 108.825 407.381 110.175 398.921 110.175H370.166L379.886 100.59V136.5H358.016ZM418.091 136.5L394.466 102.21H417.821L441.716 136.5H418.091ZM379.886 103.02L370.166 92.76H397.706C404.456 92.76 409.496 91.32 412.826 88.44C416.156 85.47 417.821 81.42 417.821 76.29C417.821 71.07 416.156 67.02 412.826 64.14C409.496 61.26 404.456 59.82 397.706 59.82H370.166L379.886 49.425V103.02ZM477.403 80.07H522.898V97.08H477.403V80.07ZM479.023 118.95H530.458V136.5H457.288V42H528.703V59.55H479.023V118.95Z" fill="#333333"/>
<path d="M91.52 130.15L91.2338 131.108L91.2453 131.112L91.52 130.15ZM74.78 122.185L73.8684 121.774L73.5425 122.497L74.1719 122.979L74.78 122.185ZM82.205 105.715L82.7845 104.9L81.7933 104.195L81.2934 105.304L82.205 105.715ZM96.515 112.87L96.1895 113.816L96.1987 113.819L96.208 113.822L96.515 112.87ZM123.785 114.355L124.081 115.31L124.091 115.307L124.101 115.304L123.785 114.355ZM129.725 110.71L128.953 110.074L129.725 110.71ZM128.645 99.505L128.034 100.296L128.045 100.305L128.057 100.314L128.645 99.505ZM120.815 95.86L120.523 96.8164L120.535 96.8201L120.547 96.8235L120.815 95.86ZM110.015 93.16L109.788 94.134L109.802 94.137L109.815 94.1397L110.015 93.16ZM98.27 89.92L97.9604 90.8709L97.9668 90.8729L98.27 89.92ZM87.605 85.06L87.0835 85.9133H87.0836L87.605 85.06ZM79.64 77.23L78.7867 77.7514L78.7919 77.76L78.7973 77.7684L79.64 77.23ZM80.99 50.095L80.1554 49.5441L80.1527 49.5482L80.99 50.095ZM94.22 39.43L94.6275 40.3432L94.6338 40.3404L94.22 39.43ZM134.045 37.54L133.802 38.5101L133.81 38.5119L133.817 38.5136L134.045 37.54ZM149.3 43.75L150.226 44.1266L150.541 43.352L149.835 42.9049L149.3 43.75ZM142.55 60.355L142.054 61.2232L143.046 61.7902L143.476 60.7316L142.55 60.355ZM129.32 54.82L129.045 55.7815L129.054 55.7841L129.064 55.7866L129.32 54.82ZM105.965 54.415L105.621 53.4761H105.621L105.965 54.415ZM100.16 58.33L100.954 58.9374L100.963 58.9266L100.971 58.9155L100.16 58.33ZM101.375 69.67L100.764 70.4613L100.775 70.4702L100.787 70.4787L101.375 69.67ZM109.205 73.18L108.937 74.1435L109.205 73.18ZM119.87 75.88L119.643 76.854L119.648 76.8551L119.87 75.88ZM131.615 78.985L131.326 79.9422L131.332 79.944L131.615 78.985ZM142.415 83.71L142.936 82.8567L142.415 83.71ZM150.245 91.54L149.392 92.0614L149.397 92.07L149.402 92.0784L150.245 91.54ZM148.895 118.405L149.724 118.964L148.895 118.405ZM135.53 129.07L135.116 128.16L135.111 128.162L135.53 129.07ZM113.255 132.12C105.783 132.12 98.6311 131.142 91.7947 129.188L91.2453 131.112C98.2689 133.118 105.607 134.12 113.255 134.12V132.12ZM91.8062 129.192C84.9537 127.145 79.494 124.536 75.3881 121.391L74.1719 122.979C78.526 126.314 84.2263 129.015 91.2338 131.108L91.8062 129.192ZM75.6916 122.596L83.1166 106.126L81.2934 105.304L73.8684 121.774L75.6916 122.596ZM81.6255 106.53C85.7653 109.474 90.6238 111.899 96.1895 113.816L96.8405 111.924C91.4262 110.061 86.7447 107.716 82.7845 104.9L81.6255 106.53ZM96.208 113.822C101.884 115.653 107.612 116.57 113.39 116.57V114.57C107.828 114.57 102.306 113.687 96.822 111.918L96.208 113.822ZM113.39 116.57C117.759 116.57 121.336 116.162 124.081 115.31L123.489 113.4C121.014 114.168 117.661 114.57 113.39 114.57V116.57ZM124.101 115.304C126.906 114.369 129.076 113.071 130.497 111.346L128.953 110.074C127.854 111.409 126.064 112.541 123.469 113.406L124.101 115.304ZM130.497 111.346C131.904 109.637 132.615 107.657 132.615 105.445H130.615C130.615 107.193 130.066 108.723 128.953 110.074L130.497 111.346ZM132.615 105.445C132.615 102.616 131.481 100.331 129.233 98.6963L128.057 100.314C129.769 101.559 130.615 103.234 130.615 105.445H132.615ZM129.256 98.7137C127.145 97.0825 124.407 95.8199 121.083 94.8965L120.547 96.8235C123.703 97.7001 126.185 98.8675 128.034 100.296L129.256 98.7137ZM121.107 94.9036C117.832 93.9029 114.201 92.9955 110.215 92.1803L109.815 94.1397C113.749 94.9445 117.318 95.8371 120.523 96.8164L121.107 94.9036ZM110.242 92.186C106.398 91.2923 102.509 90.2194 98.5732 88.9671L97.9668 90.8729C101.951 92.1406 105.892 93.2277 109.788 94.134L110.242 92.186ZM98.5796 88.9691C94.7785 87.7316 91.2953 86.1432 88.1264 84.2067L87.0836 85.9133C90.3947 87.9368 94.0215 89.5884 97.9604 90.8709L98.5796 88.9691ZM88.1265 84.2067C85.0177 82.3069 82.472 79.8053 80.4827 76.6916L78.7973 77.7684C80.948 81.1347 83.7123 83.8531 87.0835 85.9133L88.1265 84.2067ZM80.4933 76.7085C78.6358 73.669 77.67 69.7246 77.67 64.81H75.67C75.67 69.9754 76.6842 74.311 78.7867 77.7514L80.4933 76.7085ZM77.67 64.81C77.67 59.599 79.0563 54.8849 81.8273 50.6418L80.1527 49.5482C77.1637 54.1251 75.67 59.221 75.67 64.81H77.67ZM81.8246 50.6458C84.6713 46.3327 88.9183 42.8904 94.6274 40.3432L93.8126 38.5168C87.8217 41.1896 83.2487 44.8573 80.1554 49.5442L81.8246 50.6458ZM94.6338 40.3404C100.406 37.7169 107.679 36.38 116.495 36.38V34.38C107.491 34.38 99.9145 35.7431 93.8062 38.5196L94.6338 40.3404ZM116.495 36.38C122.353 36.38 128.122 37.09 133.802 38.5101L134.288 36.5699C128.448 35.11 122.517 34.38 116.495 34.38V36.38ZM133.817 38.5136C139.483 39.8415 144.461 41.8721 148.765 44.5951L149.835 42.9049C145.319 40.0479 140.127 37.9385 134.273 36.5664L133.817 38.5136ZM148.374 43.3734L141.624 59.9784L143.476 60.7316L150.226 44.1266L148.374 43.3734ZM143.046 59.4868C138.569 56.9285 134.079 55.048 129.576 53.8534L129.064 55.7866C133.381 56.932 137.711 58.7415 142.054 61.2232L143.046 59.4868ZM129.595 53.8585C125.103 52.5751 120.69 51.93 116.36 51.93V53.93C120.49 53.93 124.717 54.5449 129.045 55.7815L129.595 53.8585ZM116.36 51.93C112.063 51.93 108.47 52.4314 105.621 53.4761L106.309 55.3539C108.86 54.4186 112.197 53.93 116.36 53.93V51.93ZM105.621 53.4761C102.812 54.506 100.677 55.9063 99.3493 57.7445L100.971 58.9155C101.983 57.5137 103.718 56.304 106.309 55.3539L105.621 53.4761ZM99.3656 57.7225C98.052 59.4403 97.405 61.4579 97.405 63.73H99.405C99.405 61.8621 99.928 60.2796 100.954 58.9374L99.3656 57.7225ZM97.405 63.73C97.405 66.4803 98.547 68.7485 100.764 70.4613L101.986 68.8787C100.243 67.5315 99.405 65.8397 99.405 63.73H97.405ZM100.787 70.4787C102.892 72.01 105.622 73.2226 108.937 74.1435L109.473 72.2165C106.308 71.3374 103.818 70.21 101.963 68.8613L100.787 70.4787ZM108.937 74.1435C112.193 75.0479 115.762 75.9514 119.643 76.854L120.097 74.906C116.238 74.0086 112.697 73.1121 109.473 72.2165L108.937 74.1435ZM119.648 76.8551C123.586 77.75 127.478 78.779 131.326 79.9422L131.904 78.0278C128.012 76.851 124.074 75.81 120.092 74.9049L119.648 76.8551ZM131.332 79.944C135.215 81.0914 138.734 82.6325 141.894 84.5633L142.936 82.8567C139.616 80.8275 135.935 79.2186 131.898 78.026L131.332 79.944ZM141.894 84.5633C144.998 86.4606 147.494 88.9568 149.392 92.0614L151.098 91.0185C149.036 87.6432 146.312 84.9194 142.936 82.8567L141.894 84.5633ZM149.402 92.0784C151.344 95.1174 152.35 99.0116 152.35 103.825H154.35C154.35 98.7384 153.286 94.4426 151.088 91.0016L149.402 92.0784ZM152.35 103.825C152.35 108.936 150.925 113.601 148.066 117.846L149.724 118.964C152.805 114.389 154.35 109.334 154.35 103.825H152.35ZM148.066 117.846C145.22 122.071 140.926 125.519 135.116 128.16L135.944 129.98C142.014 127.221 146.63 123.559 149.724 118.964L148.066 117.846ZM135.111 128.162C129.434 130.782 122.164 132.12 113.255 132.12V134.12C122.346 134.12 129.926 132.758 135.949 129.978L135.111 128.162ZM186.551 131.5H185.551V132.5H186.551V131.5ZM186.551 54.82H187.551V53.82H186.551V54.82ZM156.311 54.82H155.311V55.82H156.311V54.82ZM156.311 37V36H155.311V37H156.311ZM238.661 37H239.661V36H238.661V37ZM238.661 54.82V55.82H239.661V54.82H238.661ZM208.421 54.82V53.82H207.421V54.82H208.421ZM208.421 131.5V132.5H209.421V131.5H208.421ZM187.551 131.5V54.82H185.551V131.5H187.551ZM186.551 53.82H156.311V55.82H186.551V53.82ZM157.311 54.82V37H155.311V54.82H157.311ZM156.311 38H238.661V36H156.311V38ZM237.661 37V54.82H239.661V37H237.661ZM238.661 53.82H208.421V55.82H238.661V53.82ZM207.421 54.82V131.5H209.421V54.82H207.421ZM208.421 130.5H186.551V132.5H208.421V130.5ZM274.219 129.475L273.859 130.408L273.864 130.41L274.219 129.475ZM257.749 119.215L257.056 119.936L257.063 119.943L257.749 119.215ZM246.949 103.69L246.029 104.081L246.034 104.092L246.949 103.69ZM246.949 64.81L246.034 64.4077L246.029 64.4194L246.949 64.81ZM274.354 39.025L273.994 38.092L274.354 39.025ZM315.394 39.025L315.03 39.9562L315.034 39.958L315.394 39.025ZM331.729 49.285L331.036 50.0061L331.043 50.0128L331.729 49.285ZM342.664 64.81L341.749 65.2123L341.751 65.2174L342.664 64.81ZM342.664 103.825L343.58 104.227L343.582 104.222L342.664 103.825ZM331.729 119.35L332.415 120.078L332.415 120.078L331.729 119.35ZM315.394 129.475L315.034 128.542L315.03 128.544L315.394 129.475ZM306.484 112.33L306.113 111.401L306.105 111.405L306.484 112.33ZM315.934 106.12L315.227 105.413L315.934 106.12ZM322.144 96.535L321.221 96.152L321.217 96.1617L321.213 96.1715L322.144 96.535ZM322.144 71.965L321.213 72.3285L321.217 72.3383L321.221 72.348L322.144 71.965ZM315.934 62.38L315.215 63.075L315.221 63.0811L315.227 63.0871L315.934 62.38ZM306.619 56.17L306.248 57.0985L306.619 56.17ZM283.129 56.17L282.758 55.2415L282.75 55.2448L283.129 56.17ZM273.814 62.38L274.521 63.0871L273.814 62.38ZM267.469 71.965L266.546 71.582L266.542 71.5917L266.538 71.6015L267.469 71.965ZM267.469 96.535L266.535 96.891L266.54 96.9046L266.546 96.918L267.469 96.535ZM273.679 106.12L272.96 106.815L272.966 106.821L272.972 106.827L273.679 106.12ZM283.129 112.33L282.758 113.258L283.129 112.33ZM295.009 132.12C287.649 132.12 280.841 130.923 274.575 128.54L273.864 130.41C280.377 132.887 287.429 134.12 295.009 134.12V132.12ZM274.579 128.542C268.394 126.156 263.016 122.804 258.435 118.487L257.063 119.943C261.842 124.446 267.445 127.934 273.859 130.408L274.579 128.542ZM258.442 118.494C253.948 114.176 250.423 109.11 247.865 103.288L246.034 104.092C248.695 110.15 252.37 115.434 257.056 119.936L258.442 118.494ZM247.87 103.299C245.407 97.4935 244.169 91.1477 244.169 84.25H242.169C242.169 91.3923 243.452 98.0065 246.029 104.081L247.87 103.299ZM244.169 84.25C244.169 77.3523 245.407 71.0065 247.87 65.2005L246.029 64.4194C243.452 70.4935 242.169 77.1077 242.169 84.25H244.169ZM247.865 65.2123C250.421 59.394 253.989 54.3299 258.57 50.0128L257.199 48.5572C252.42 53.0601 248.697 58.346 246.034 64.4077L247.865 65.2123ZM258.57 50.0128C263.151 45.6961 268.529 42.3437 274.714 39.958L273.994 38.092C267.58 40.5663 261.977 44.0539 257.199 48.5572L258.57 50.0128ZM274.714 39.958C280.889 37.5762 287.606 36.38 294.874 36.38V34.38C287.383 34.38 280.419 35.6138 273.994 38.092L274.714 39.958ZM294.874 36.38C302.235 36.38 308.949 37.5768 315.03 39.9562L315.759 38.0938C309.419 35.6132 302.454 34.38 294.874 34.38V36.38ZM315.034 39.958C321.218 42.3431 326.548 45.6937 331.036 50.0061L332.422 48.5639C327.731 44.0563 322.17 40.5669 315.754 38.092L315.034 39.958ZM331.043 50.0128C335.625 54.3299 339.192 59.394 341.749 65.2123L343.58 64.4077C340.916 58.346 337.194 53.0601 332.415 48.5572L331.043 50.0128ZM341.751 65.2174C344.298 70.9258 345.579 77.2649 345.579 84.25H347.579C347.579 77.0151 346.251 70.3942 343.578 64.4026L341.751 65.2174ZM345.579 84.25C345.579 91.1428 344.299 97.5316 341.747 103.428L343.582 104.222C346.25 98.0584 347.579 91.3972 347.579 84.25H345.579ZM341.749 103.423C339.192 109.241 335.625 114.305 331.043 118.622L332.415 120.078C337.194 115.575 340.916 110.289 343.58 104.227L341.749 103.423ZM331.044 118.622C326.555 122.847 321.222 126.155 315.034 128.542L315.754 130.408C322.166 127.935 327.724 124.493 332.415 120.078L331.044 118.622ZM315.03 128.544C308.948 130.924 302.278 132.12 295.009 132.12V134.12C302.501 134.12 309.421 132.886 315.759 130.406L315.03 128.544ZM294.874 115.49C299.22 115.49 303.22 114.75 306.864 113.255L306.105 111.405C302.728 112.79 298.989 113.49 294.874 113.49V115.49ZM306.856 113.258C310.579 111.769 313.844 109.624 316.641 106.827L315.227 105.413C312.624 108.016 309.589 110.011 306.113 111.402L306.856 113.258ZM316.641 106.827C319.443 104.026 321.588 100.712 323.076 96.8985L321.213 96.1715C319.821 99.7376 317.826 102.814 315.227 105.413L316.641 106.827ZM323.068 96.918C324.654 93.0922 325.439 88.8649 325.439 84.25H323.439C323.439 88.6351 322.694 92.5978 321.221 96.152L323.068 96.918ZM325.439 84.25C325.439 79.6351 324.654 75.4078 323.068 71.582L321.221 72.348C322.694 75.9022 323.439 79.8649 323.439 84.25H325.439ZM323.076 71.6015C321.588 67.7876 319.443 64.4743 316.641 61.6729L315.227 63.0871C317.826 65.6857 319.821 68.7624 321.213 72.3285L323.076 71.6015ZM316.653 61.685C313.942 58.8802 310.717 56.7322 306.991 55.2415L306.248 57.0985C309.721 58.4878 312.707 60.4798 315.215 63.075L316.653 61.685ZM306.991 55.2415C303.262 53.7501 299.22 53.01 294.874 53.01V55.01C298.989 55.01 302.776 55.7099 306.248 57.0985L306.991 55.2415ZM294.874 53.01C290.529 53.01 286.486 53.7501 282.758 55.2415L283.501 57.0985C286.972 55.7099 290.76 55.01 294.874 55.01V53.01ZM282.75 55.2448C279.116 56.7354 275.9 58.8798 273.107 61.6729L274.521 63.0871C277.128 60.4801 280.122 58.4846 283.509 57.0952L282.75 55.2448ZM273.107 61.6729C270.31 64.4699 268.123 67.7765 266.546 71.582L268.393 72.348C269.875 68.7735 271.918 65.6901 274.521 63.0871L273.107 61.6729ZM266.538 71.6015C265.047 75.422 264.309 79.6424 264.309 84.25H266.309C266.309 79.8576 267.012 75.888 268.401 72.3285L266.538 71.6015ZM264.309 84.25C264.309 88.7707 265.048 92.9874 266.535 96.891L268.404 96.179C267.011 92.5225 266.309 88.5493 266.309 84.25H264.309ZM266.546 96.918C268.121 100.716 270.258 104.019 272.96 106.815L274.398 105.425C271.881 102.821 269.878 99.7335 268.393 96.152L266.546 96.918ZM272.972 106.827C275.769 109.624 279.034 111.769 282.758 113.258L283.501 111.402C280.024 110.011 276.989 108.016 274.386 105.413L272.972 106.827ZM282.758 113.258C286.486 114.75 290.529 115.49 294.874 115.49V113.49C290.76 113.49 286.972 112.79 283.501 111.402L282.758 113.258ZM363.016 131.5H362.016V132.5H363.016V131.5ZM363.016 37V36H362.016V37H363.016ZM425.791 41.185L425.376 42.095L425.387 42.0999L425.791 41.185ZM439.966 52.93L439.127 53.4745L439.966 52.93ZM439.966 89.515L440.8 90.0663L440.804 90.0595L439.966 89.515ZM425.791 101.125L426.194 102.04L425.791 101.125ZM375.166 105.175L374.463 104.463L372.727 106.175H375.166V105.175ZM384.886 95.59H385.886V93.1995L384.183 94.878L384.886 95.59ZM384.886 131.5V132.5H385.886V131.5H384.886ZM423.091 131.5L422.267 132.067L422.565 132.5H423.091V131.5ZM399.466 97.21V96.21H397.562L398.642 97.7774L399.466 97.21ZM422.821 97.21L423.641 96.6383L423.343 96.21H422.821V97.21ZM446.716 131.5V132.5H448.631L447.536 130.928L446.716 131.5ZM384.886 98.02L384.16 98.7077L385.886 100.53V98.02H384.886ZM375.166 87.76V86.76H372.841L374.44 88.4477L375.166 87.76ZM417.826 83.44L418.48 84.1964L418.485 84.1914L418.491 84.1863L417.826 83.44ZM375.166 54.82L374.435 54.137L372.861 55.82H375.166V54.82ZM384.886 44.425H385.886V41.8914L384.155 43.742L384.886 44.425ZM364.016 131.5V37H362.016V131.5H364.016ZM363.016 38H403.921V36H363.016V38ZM403.921 38C412.273 38 419.415 39.3775 425.376 42.0949L426.205 40.2751C419.926 37.4125 412.488 36 403.921 36V38ZM425.387 42.0999C431.346 44.729 435.913 48.5229 439.127 53.4745L440.804 52.3855C437.359 47.0771 432.475 43.0409 426.194 40.2701L425.387 42.0999ZM439.127 53.4745C442.335 58.4174 443.961 64.3412 443.961 71.29H445.961C445.961 64.0188 444.256 57.7026 440.804 52.3855L439.127 53.4745ZM443.961 71.29C443.961 78.146 442.337 84.0256 439.127 88.9705L440.804 90.0595C444.254 84.7444 445.961 78.4739 445.961 71.29H443.961ZM439.131 88.9637C435.918 93.8268 431.351 97.5789 425.387 100.21L426.194 102.04C432.47 99.2711 437.353 95.2832 440.8 90.0663L439.131 88.9637ZM425.387 100.21C419.423 102.841 412.277 104.175 403.921 104.175V106.175C412.484 106.175 419.918 104.809 426.194 102.04L425.387 100.21ZM403.921 104.175H375.166V106.175H403.921V104.175ZM375.868 105.887L385.588 96.302L384.183 94.878L374.463 104.463L375.868 105.887ZM383.886 95.59V131.5H385.886V95.59H383.886ZM384.886 130.5H363.016V132.5H384.886V130.5ZM423.914 130.933L400.289 96.6426L398.642 97.7774L422.267 132.067L423.914 130.933ZM399.466 98.21H422.821V96.21H399.466V98.21ZM422 97.7817L445.895 132.072L447.536 130.928L423.641 96.6383L422 97.7817ZM446.716 130.5H423.091V132.5H446.716V130.5ZM385.612 97.3323L375.892 87.0723L374.44 88.4477L384.16 98.7077L385.612 97.3323ZM375.166 88.76H402.706V86.76H375.166V88.76ZM402.706 88.76C409.573 88.76 414.893 87.2986 418.48 84.1964L417.171 82.6836C414.098 85.3414 409.338 86.76 402.706 86.76V88.76ZM418.491 84.1863C422.067 80.9973 423.821 76.6579 423.821 71.29H421.821C421.821 76.1821 420.244 79.9427 417.16 82.6937L418.491 84.1863ZM423.821 71.29C423.821 65.8389 422.071 61.4892 418.48 58.3836L417.171 59.8964C420.241 62.5508 421.821 66.3011 421.821 71.29H423.821ZM418.48 58.3836C414.893 55.2814 409.573 53.82 402.706 53.82V55.82C409.338 55.82 414.098 57.2386 417.171 59.8964L418.48 58.3836ZM402.706 53.82H375.166V55.82H402.706V53.82ZM375.896 55.503L385.616 45.108L384.155 43.742L374.435 54.137L375.896 55.503ZM383.886 44.425V98.02H385.886V44.425H383.886ZM482.403 75.07V74.07H481.403V75.07H482.403ZM527.898 75.07H528.898V74.07H527.898V75.07ZM527.898 92.08V93.08H528.898V92.08H527.898ZM482.403 92.08H481.403V93.08H482.403V92.08ZM484.023 113.95H483.023V114.95H484.023V113.95ZM535.458 113.95H536.458V112.95H535.458V113.95ZM535.458 131.5V132.5H536.458V131.5H535.458ZM462.288 131.5H461.288V132.5H462.288V131.5ZM462.288 37V36H461.288V37H462.288ZM533.703 37H534.703V36H533.703V37ZM533.703 54.55V55.55H534.703V54.55H533.703ZM484.023 54.55V53.55H483.023V54.55H484.023ZM482.403 76.07H527.898V74.07H482.403V76.07ZM526.898 75.07V92.08H528.898V75.07H526.898ZM527.898 91.08H482.403V93.08H527.898V91.08ZM483.403 92.08V75.07H481.403V92.08H483.403ZM484.023 114.95H535.458V112.95H484.023V114.95ZM534.458 113.95V131.5H536.458V113.95H534.458ZM535.458 130.5H462.288V132.5H535.458V130.5ZM463.288 131.5V37H461.288V131.5H463.288ZM462.288 38H533.703V36H462.288V38ZM532.703 37V54.55H534.703V37H532.703ZM533.703 53.55H484.023V55.55H533.703V53.55ZM483.023 54.55V113.95H485.023V54.55H483.023Z" fill="#F9F9F9"/>
<path d="M60.496 122.396C60.496 126.323 59.504 129.381 57.52 131.572C55.4947 133.763 52.498 134.858 48.53 134.858H19.266V125.186H48.406C49.8113 125.186 50.9067 124.814 51.692 124.07C52.436 123.326 52.808 122.313 52.808 121.032C52.808 119.503 52.3947 118.201 51.568 117.126L58.388 114.522C59.0907 115.514 59.628 116.713 60 118.118C60.3307 119.482 60.496 120.908 60.496 122.396ZM34.828 140.004H27.388V116.878H34.828V140.004ZM26.148 88.8186C26.148 86.1733 26.6853 83.8173 27.76 81.7506C28.7933 79.6426 30.4053 77.9893 32.596 76.7906C34.7453 75.592 37.5147 74.9926 40.904 74.9926H60L60 84.6646H42.392C39.7053 84.6646 37.7213 85.264 36.44 86.4626C35.1587 87.62 34.518 89.2733 34.518 91.4226C34.518 92.952 34.8487 94.3366 35.51 95.5766C36.13 96.7753 37.1013 97.726 38.424 98.4286C39.7467 99.09 41.4413 99.4206 43.508 99.4206H60V109.093H13.996V99.4206H35.882L33.092 101.591C30.86 100.392 29.1447 98.6766 27.946 96.4446C26.7473 94.2126 26.148 91.6706 26.148 88.8186ZM60.496 49.4293C60.496 53.2319 59.752 56.5799 58.264 59.4733C56.776 62.3253 54.7507 64.5366 52.188 66.1073C49.584 67.6779 46.6287 68.4633 43.322 68.4633C39.974 68.4633 37.0187 67.6986 34.456 66.1693C31.852 64.5986 29.8267 62.4699 28.38 59.7833C26.892 57.0966 26.148 54.0586 26.148 50.6693C26.148 47.4039 26.8507 44.4693 28.256 41.8653C29.62 39.2199 31.604 37.1326 34.208 35.6033C36.7707 34.0739 39.85 33.3093 43.446 33.3093C43.818 33.3093 44.252 33.3299 44.748 33.3713C45.2027 33.4126 45.6367 33.4539 46.05 33.4953V60.5893H40.408V38.5793L42.082 42.2993C40.346 42.2993 38.8373 42.6506 37.556 43.3533C36.2747 44.0559 35.2827 45.0273 34.58 46.2673C33.836 47.5073 33.464 48.9539 33.464 50.6073C33.464 52.2606 33.836 53.7279 34.58 55.0093C35.2827 56.2493 36.2953 57.2206 37.618 57.9233C38.8993 58.6259 40.4287 58.9773 42.206 58.9773H43.694C45.5127 58.9773 47.1247 58.5846 48.53 57.7993C49.894 56.9726 50.948 55.8359 51.692 54.3893C52.3947 52.9013 52.746 51.1653 52.746 49.1813C52.746 47.4039 52.4773 45.8539 51.94 44.5313C51.4027 43.1673 50.5967 41.9273 49.522 40.8113L55.102 35.6653C56.838 37.1946 58.1813 39.1166 59.132 41.4313C60.0413 43.7459 60.496 46.4119 60.496 49.4293Z" fill="#333333"/>
</svg>
