<?xml version="1.0" encoding="utf-8"?>
<!-- Generator: Adobe Illustrator 24.0.1, SVG Export Plug-In . SVG Version: 6.00 Build 0)  -->
<svg version="1.1" id="Layer_1" xmlns="http://www.w3.org/2000/svg" xmlns:xlink="http://www.w3.org/1999/xlink" x="0px" y="0px"
	 viewBox="0 0 552.71 146.57" style="enable-background:new 0 0 552.71 146.57;" xml:space="preserve">
<style type="text/css">
	.st0{fill:#333333;}
	.st1{fill:none;stroke:#F9F9FA;stroke-miterlimit:10;}
	.st2{fill:none;stroke:#000000;stroke-miterlimit:10;}
</style>
<g>
	<path class="st0" d="M85.79,123.8H63.92V29.3h71.42v17.55H85.79V123.8z M84.17,71.83h45.36v17.55H84.17V71.83z"/>
	<path class="st0" d="M195.14,125.42c-7.47,0-14.38-1.22-20.72-3.65c-6.35-2.43-11.84-5.85-16.47-10.26
		c-4.64-4.41-8.23-9.58-10.8-15.52c-2.56-5.94-3.85-12.42-3.85-19.44s1.28-13.5,3.85-19.44c2.57-5.94,6.19-11.11,10.87-15.52
		c4.68-4.41,10.17-7.83,16.47-10.26c6.3-2.43,13.14-3.65,20.52-3.65c7.47,0,14.33,1.22,20.59,3.65c6.25,2.43,11.7,5.85,16.33,10.26
		c4.63,4.41,8.26,9.56,10.87,15.46c2.61,5.9,3.92,12.4,3.92,19.51c0,7.02-1.31,13.52-3.92,19.51c-2.61,5.99-6.23,11.16-10.87,15.53
		c-4.64,4.37-10.08,7.76-16.33,10.19C209.33,124.21,202.52,125.42,195.14,125.42z M195,106.79c4.23,0,8.12-0.72,11.68-2.16
		c3.55-1.44,6.68-3.51,9.38-6.21c2.7-2.7,4.79-5.89,6.28-9.58c1.48-3.69,2.23-7.78,2.23-12.29c0-4.5-0.74-8.59-2.23-12.29
		c-1.49-3.69-3.56-6.88-6.21-9.58c-2.66-2.7-5.78-4.77-9.38-6.21c-3.6-1.44-7.52-2.16-11.74-2.16c-4.23,0-8.12,0.72-11.68,2.16
		c-3.56,1.44-6.68,3.51-9.38,6.21c-2.7,2.7-4.79,5.9-6.28,9.58c-1.48,3.69-2.23,7.79-2.23,12.29c0,4.41,0.74,8.48,2.23,12.22
		c1.48,3.74,3.55,6.95,6.21,9.65c2.65,2.7,5.78,4.77,9.38,6.21C186.86,106.08,190.77,106.79,195,106.79z"/>
	<path class="st0" d="M263.18,123.8V29.3h40.91c8.46,0,15.75,1.37,21.87,4.12c6.12,2.75,10.84,6.68,14.17,11.81
		c3.33,5.13,5,11.25,5,18.36c0,7.02-1.67,13.07-5,18.16c-3.33,5.09-8.06,8.98-14.17,11.68c-6.12,2.7-13.41,4.05-21.87,4.05h-28.76
		l9.72-9.58v35.91H263.18z M285.05,90.32l-9.72-10.26h27.54c6.75,0,11.79-1.46,15.12-4.39c3.33-2.92,5-6.95,5-12.08
		c0-5.22-1.67-9.27-5-12.15c-3.33-2.88-8.37-4.32-15.12-4.32h-27.54l9.72-10.4V90.32z M323.25,123.8l-23.63-34.29h23.35l23.9,34.29
		H323.25z"/>
	<path class="st0" d="M407.63,125.42c-7.29,0-14.06-1.19-20.32-3.58c-6.26-2.38-11.68-5.78-16.27-10.19
		c-4.59-4.41-8.17-9.58-10.73-15.52c-2.56-5.94-3.85-12.46-3.85-19.58c0-7.11,1.28-13.63,3.85-19.58
		c2.57-5.94,6.16-11.11,10.8-15.52c4.63-4.41,10.06-7.81,16.27-10.19c6.21-2.38,13-3.58,20.39-3.58c8.19,0,15.59,1.42,22.21,4.25
		s12.17,7,16.67,12.49L432.6,57.38c-3.24-3.69-6.84-6.46-10.8-8.3c-3.96-1.84-8.28-2.77-12.96-2.77c-4.41,0-8.46,0.72-12.15,2.16
		c-3.69,1.44-6.88,3.51-9.58,6.21c-2.7,2.7-4.79,5.9-6.28,9.58c-1.49,3.69-2.23,7.79-2.23,12.29c0,4.5,0.74,8.6,2.23,12.29
		c1.48,3.69,3.58,6.88,6.28,9.58c2.7,2.7,5.89,4.77,9.58,6.21c3.69,1.44,7.74,2.16,12.15,2.16c4.68,0,9-0.92,12.96-2.77
		c3.96-1.84,7.56-4.66,10.8-8.44l14.04,12.96c-4.5,5.49-10.06,9.68-16.67,12.55C423.35,123.98,415.91,125.42,407.63,125.42z"/>
	<path class="st0" d="M483.09,106.25h51.43v17.55h-73.17V29.3h71.42v17.55h-49.68V106.25z M481.47,67.37h45.5v17.01h-45.5V67.37z"/>
</g>
<polygon class="st1" points="69.28,119.35 91.15,119.35 91.15,84.93 134.89,84.93 134.89,67.38 91.15,67.38 91.15,42.4 140.69,42.4 
	140.69,24.85 69.28,24.85 "/>
<g>
	<path class="st1" d="M199.53,122.59c-7.47,0-14.38-1.21-20.72-3.65c-6.34-2.43-11.84-5.85-16.47-10.26
		c-4.64-4.41-8.23-9.58-10.8-15.52c-2.56-5.94-3.85-12.42-3.85-19.44s1.28-13.5,3.85-19.44c2.57-5.94,6.19-11.11,10.87-15.53
		c4.68-4.41,10.17-7.83,16.47-10.26c6.3-2.43,13.14-3.65,20.52-3.65c7.47,0,14.33,1.22,20.59,3.65c6.25,2.43,11.7,5.85,16.34,10.26
		c4.63,4.41,8.26,9.56,10.87,15.46c2.61,5.9,3.91,12.4,3.91,19.51c0,7.02-1.3,13.52-3.91,19.51c-2.61,5.99-6.23,11.16-10.87,15.52
		c-4.64,4.37-10.08,7.76-16.34,10.19C213.73,121.38,206.91,122.59,199.53,122.59z M199.4,103.96c4.23,0,8.12-0.72,11.68-2.16
		c3.55-1.44,6.68-3.51,9.38-6.21c2.7-2.7,4.79-5.89,6.28-9.58c1.49-3.69,2.23-7.78,2.23-12.29c0-4.5-0.74-8.59-2.23-12.29
		c-1.48-3.69-3.56-6.88-6.21-9.58c-2.66-2.7-5.78-4.77-9.38-6.21c-3.6-1.44-7.52-2.16-11.74-2.16c-4.23,0-8.12,0.72-11.68,2.16
		c-3.56,1.44-6.68,3.51-9.38,6.21c-2.7,2.7-4.79,5.9-6.28,9.58c-1.48,3.69-2.23,7.79-2.23,12.29c0,4.41,0.74,8.48,2.23,12.22
		c1.49,3.74,3.55,6.95,6.21,9.65c2.65,2.7,5.78,4.77,9.38,6.21C191.25,103.24,195.16,103.96,199.4,103.96z"/>
</g>
<path class="st1" d="M351.61,119.35l-21.11-30.3c0.06-0.03,0.13-0.05,0.19-0.08c6.12-2.7,10.84-6.59,14.17-11.68
	c3.33-5.08,5-11.14,5-18.16c0-7.11-1.67-13.23-5-18.36c-3.33-5.13-8.06-9.07-14.17-11.81c-6.12-2.74-13.41-4.12-21.87-4.12h-40.91
	v94.5h21.87V93.03h19.04c0.35,0,0.68-0.02,1.02-0.02l18.15,26.35H351.61z M322.72,46.99c3.33,2.88,5,6.93,5,12.15
	c0,5.13-1.67,9.16-5,12.08c-3.33,2.93-8.37,4.39-15.12,4.39h-17.82V42.67h17.82C314.35,42.67,319.39,44.11,322.72,46.99z"/>
<g>
	<path class="st1" d="M412.04,122.59c-7.29,0-14.06-1.19-20.32-3.58c-6.26-2.38-11.68-5.78-16.27-10.19
		c-4.59-4.41-8.17-9.58-10.73-15.52c-2.56-5.94-3.85-12.46-3.85-19.58c0-7.11,1.28-13.63,3.85-19.58
		c2.57-5.94,6.16-11.11,10.8-15.53c4.63-4.41,10.06-7.81,16.27-10.19s13-3.58,20.39-3.58c8.19,0,15.59,1.42,22.21,4.25
		c6.62,2.84,12.17,7,16.67,12.49l-14.04,12.96c-3.24-3.69-6.84-6.46-10.8-8.3c-3.96-1.84-8.28-2.77-12.96-2.77
		c-4.41,0-8.46,0.72-12.15,2.16c-3.69,1.44-6.88,3.51-9.58,6.21c-2.7,2.7-4.79,5.9-6.28,9.58c-1.49,3.69-2.23,7.79-2.23,12.29
		c0,4.5,0.74,8.6,2.23,12.29c1.48,3.69,3.58,6.88,6.28,9.58s5.89,4.77,9.58,6.21c3.69,1.44,7.74,2.16,12.15,2.16
		c4.68,0,9-0.92,12.96-2.77c3.96-1.84,7.56-4.66,10.8-8.44l14.04,12.96c-4.5,5.49-10.06,9.68-16.67,12.55
		C427.77,121.15,420.32,122.59,412.04,122.59z"/>
</g>
<path class="st1" d="M488.51,101.8V79.93h43.87V62.92h-43.87V42.4h49.68V24.85h-71.42v94.5h73.17V101.8H488.51z"/>
<g>
	<path class="st0" d="M53.21,106.67c0,3.93-1,6.99-3.01,9.18c-2,2.19-4.99,3.29-8.96,3.29H11.98v-9.67h29.14
		c1.41,0,2.49-0.37,3.26-1.12c0.77-0.74,1.15-1.76,1.15-3.04c0-1.53-0.41-2.83-1.24-3.91l6.82-2.6c0.7,0.99,1.23,2.18,1.58,3.56
		C53.03,103.74,53.21,105.18,53.21,106.67z M27.54,124.27H20.1v-23.13h7.44V124.27z"/>
	<path class="st0" d="M18.86,73.06c0-2.65,0.53-5.01,1.58-7.1c1.05-2.09,2.67-3.73,4.84-4.93c2.17-1.2,4.95-1.8,8.34-1.8h19.1v9.67
		H35.11c-2.69,0-4.67,0.59-5.95,1.77c-1.28,1.18-1.92,2.84-1.92,4.99c0,1.53,0.32,2.9,0.96,4.12c0.64,1.22,1.62,2.17,2.94,2.85
		c1.32,0.68,3.02,1.02,5.08,1.02h16.49v9.67h-46v-9.67H28.6l-2.79,2.17c-2.23-1.2-3.95-2.91-5.15-5.15
		C19.46,78.46,18.86,75.91,18.86,73.06z"/>
	<path class="st0" d="M53.21,33.69c0,3.8-0.74,7.14-2.23,10.01c-1.49,2.87-3.52,5.09-6.11,6.67c-2.58,1.57-5.53,2.36-8.84,2.36
		c-3.35,0-6.31-0.77-8.9-2.33c-2.58-1.55-4.61-3.67-6.08-6.35c-1.47-2.69-2.2-5.72-2.2-9.11c0-3.26,0.69-6.21,2.08-8.83
		c1.39-2.62,3.37-4.7,5.95-6.23c2.58-1.53,5.67-2.29,9.27-2.29c0.37,0,0.8,0.02,1.27,0.06c0.48,0.04,0.92,0.08,1.33,0.12v27.09
		h-5.64V22.84l1.67,3.72c-1.74,0-3.24,0.35-4.53,1.05c-1.28,0.7-2.28,1.67-3.01,2.91c-0.72,1.24-1.08,2.69-1.08,4.34
		c0,1.65,0.36,3.11,1.08,4.37c0.72,1.26,1.74,2.24,3.04,2.95c1.3,0.7,2.84,1.05,4.62,1.05h1.49c1.82,0,3.42-0.4,4.81-1.21
		c1.39-0.81,2.44-1.94,3.16-3.41c0.72-1.47,1.08-3.19,1.08-5.18c0-1.78-0.27-3.34-0.81-4.68c-0.54-1.34-1.34-2.57-2.42-3.69
		l5.58-5.15c1.74,1.53,3.07,3.45,4,5.77C52.75,28.01,53.21,30.68,53.21,33.69z"/>
</g>
</svg>
